<?xml version="1.0" encoding="utf-8"?>
<!-- Generator: Adobe Illustrator 21.0.0, SVG Export Plug-In . SVG Version: 6.00 Build 0)  -->
<svg version="1.1" id="Layer_1" xmlns="http://www.w3.org/2000/svg" xmlns:xlink="http://www.w3.org/1999/xlink" x="0px" y="0px"
	 viewBox="0 0 104 30.5" style="enable-background:new 0 0 104 30.5;" xml:space="preserve">
<style type="text/css">
	.st0{enable-background:new    ;}
	.st1{fill:#FFFFFF;}
</style>
<title>Clínica Bupa Santiag</title>
<desc>Created with Sketch.</desc>
<g id="OP-7---Final">
	<g id="Mobile-07" transform="translate(-15.000000, -2553.000000)">
		<g id="footer" transform="translate(0.000000, 2540.000000)">
			<g class="st0">
				<path class="st1" d="M20.8,24.7c-0.7,0-1.4-0.1-2-0.4c-0.6-0.3-1.1-0.6-1.6-1.1c-0.4-0.5-0.8-1-1-1.6c-0.3-0.6-0.4-1.3-0.4-2v0
					c0-0.7,0.1-1.4,0.4-2s0.6-1.1,1-1.6c0.4-0.5,1-0.8,1.6-1.1c0.6-0.3,1.3-0.4,2.1-0.4c0.5,0,0.9,0,1.3,0.1c0.4,0.1,0.7,0.2,1,0.3
					c0.3,0.1,0.6,0.3,0.9,0.5c0.3,0.2,0.5,0.4,0.7,0.6l-1.4,1.6c-0.4-0.3-0.8-0.6-1.2-0.8c-0.4-0.2-0.8-0.3-1.3-0.3
					c-0.4,0-0.8,0.1-1.1,0.2c-0.3,0.2-0.7,0.4-0.9,0.7s-0.4,0.6-0.6,1c-0.1,0.4-0.2,0.8-0.2,1.2v0c0,0.4,0.1,0.8,0.2,1.2
					s0.3,0.7,0.6,1c0.2,0.3,0.5,0.5,0.9,0.7c0.4,0.2,0.7,0.2,1.2,0.2c0.6,0,1-0.1,1.4-0.3s0.8-0.5,1.2-0.8l1.4,1.4
					c-0.3,0.3-0.5,0.5-0.8,0.7c-0.3,0.2-0.6,0.4-0.9,0.6c-0.3,0.2-0.7,0.3-1.1,0.3C21.7,24.6,21.2,24.7,20.8,24.7z"/>
				<path class="st1" d="M26.4,14.3h2.1v10.2h-2.1V14.3z"/>
				<path class="st1" d="M30.6,17h2.1v7.5h-2.1V17z M32.3,13.7l1.8,0.8l-1.8,1.7h-1.6L32.3,13.7z"/>
				<path class="st1" d="M34.7,17h2.1v1.1c0.1-0.2,0.3-0.3,0.4-0.5c0.1-0.1,0.3-0.3,0.5-0.4c0.2-0.1,0.4-0.2,0.6-0.3
					c0.2-0.1,0.5-0.1,0.7-0.1c0.8,0,1.4,0.2,1.9,0.7c0.4,0.5,0.7,1.2,0.7,2v4.9h-2.1v-4.2c0-0.5-0.1-0.9-0.3-1.1
					c-0.2-0.3-0.5-0.4-1-0.4c-0.4,0-0.7,0.1-1,0.4c-0.2,0.3-0.4,0.6-0.4,1.1v4.2h-2.1V17z"/>
				<path class="st1" d="M43.5,14.3h2.2v1.9h-2.2V14.3z M43.6,17h2.1v7.5h-2.1V17z"/>
				<path class="st1" d="M51.2,24.7c-0.6,0-1.1-0.1-1.6-0.3c-0.5-0.2-0.9-0.5-1.2-0.8c-0.3-0.4-0.6-0.8-0.8-1.2
					c-0.2-0.5-0.3-1-0.3-1.5v0c0-0.5,0.1-1,0.3-1.5s0.5-0.9,0.8-1.2c0.3-0.4,0.8-0.6,1.2-0.8c0.5-0.2,1-0.3,1.6-0.3
					c0.7,0,1.3,0.1,1.8,0.3c0.5,0.2,0.9,0.5,1.2,0.9L53,19.5c-0.2-0.3-0.5-0.5-0.7-0.6s-0.6-0.2-1-0.2c-0.3,0-0.5,0.1-0.7,0.2
					c-0.2,0.1-0.4,0.3-0.6,0.4c-0.2,0.2-0.3,0.4-0.4,0.7c-0.1,0.2-0.1,0.5-0.1,0.8v0c0,0.3,0,0.6,0.1,0.8c0.1,0.3,0.2,0.5,0.4,0.7
					c0.2,0.2,0.4,0.3,0.6,0.4s0.5,0.2,0.8,0.2c0.4,0,0.7-0.1,0.9-0.2c0.3-0.1,0.5-0.3,0.8-0.6l1.2,1.3c-0.4,0.4-0.8,0.7-1.2,1
					C52.6,24.5,52,24.7,51.2,24.7z"/>
				<path class="st1" d="M57.8,24.6c-0.4,0-0.7,0-1-0.1c-0.3-0.1-0.6-0.2-0.8-0.4c-0.2-0.2-0.4-0.4-0.6-0.7c-0.1-0.3-0.2-0.6-0.2-1
					v0c0-0.4,0.1-0.8,0.2-1.1s0.4-0.5,0.6-0.7c0.3-0.2,0.6-0.3,1-0.4c0.4-0.1,0.8-0.1,1.2-0.1c0.4,0,0.7,0,1,0.1
					c0.3,0.1,0.6,0.1,0.8,0.2v-0.1c0-0.4-0.1-0.8-0.4-1s-0.7-0.3-1.2-0.3c-0.4,0-0.8,0-1.1,0.1s-0.6,0.2-1,0.3l-0.5-1.6
					c0.4-0.2,0.8-0.3,1.3-0.4c0.4-0.1,1-0.2,1.6-0.2c0.6,0,1.1,0.1,1.5,0.2c0.4,0.1,0.8,0.4,1,0.6c0.3,0.3,0.5,0.6,0.6,1
					c0.1,0.4,0.2,0.9,0.2,1.4v4.4h-2.1v-0.8c-0.3,0.3-0.6,0.5-0.9,0.7S58.3,24.6,57.8,24.6z M58.5,23.2c0.5,0,0.9-0.1,1.2-0.4
					c0.3-0.2,0.5-0.6,0.5-1v-0.4c-0.2-0.1-0.4-0.2-0.6-0.2c-0.2-0.1-0.5-0.1-0.7-0.1c-0.5,0-0.8,0.1-1.1,0.3
					c-0.3,0.2-0.4,0.4-0.4,0.8v0c0,0.3,0.1,0.5,0.3,0.7C57.8,23.1,58.1,23.2,58.5,23.2z"/>
			</g>
			<g class="st0">
				<path class="st1" d="M16.2,28.7h4.5c1.1,0,2,0.3,2.6,0.9c0.4,0.4,0.7,1,0.7,1.7v0c0,0.3,0,0.5-0.1,0.7c-0.1,0.2-0.2,0.4-0.3,0.6
					c-0.1,0.2-0.3,0.3-0.4,0.5c-0.2,0.1-0.3,0.2-0.5,0.3c0.6,0.2,1,0.5,1.3,0.9c0.3,0.4,0.5,0.9,0.5,1.5v0c0,0.4-0.1,0.8-0.3,1.2
					s-0.4,0.6-0.7,0.8c-0.3,0.2-0.7,0.4-1.2,0.5s-1,0.2-1.5,0.2h-4.7V28.7z M20.3,32.7c0.5,0,0.9-0.1,1.1-0.2
					c0.3-0.2,0.4-0.4,0.4-0.8v0c0-0.3-0.1-0.6-0.4-0.7c-0.2-0.2-0.6-0.3-1.1-0.3h-2.1v2.1H20.3z M20.8,36.6c0.5,0,0.8-0.1,1.1-0.3
					c0.3-0.2,0.4-0.4,0.4-0.8v0c0-0.3-0.1-0.6-0.4-0.8s-0.7-0.3-1.2-0.3h-2.5v2.2H20.8z"/>
				<path class="st1" d="M28.6,38.6c-0.8,0-1.4-0.2-1.9-0.7c-0.4-0.5-0.7-1.2-0.7-2V31h2.1v4.2c0,0.5,0.1,0.9,0.3,1.1
					c0.2,0.3,0.5,0.4,1,0.4s0.7-0.1,1-0.4c0.2-0.3,0.4-0.6,0.4-1.1V31h2.1v7.5h-2.1v-1.1c-0.1,0.2-0.3,0.3-0.4,0.5s-0.3,0.3-0.5,0.4
					s-0.4,0.2-0.6,0.3C29.1,38.6,28.8,38.6,28.6,38.6z"/>
				<path class="st1" d="M34.8,31h2.1v1.1c0.3-0.4,0.6-0.6,0.9-0.9c0.4-0.2,0.8-0.3,1.4-0.3c0.4,0,0.9,0.1,1.3,0.3
					c0.4,0.2,0.8,0.4,1.1,0.7c0.3,0.3,0.6,0.7,0.8,1.2s0.3,1,0.3,1.7v0c0,0.6-0.1,1.2-0.3,1.7s-0.4,0.9-0.8,1.2
					c-0.3,0.3-0.7,0.6-1.1,0.7c-0.4,0.2-0.8,0.3-1.3,0.3c-0.6,0-1-0.1-1.4-0.3c-0.4-0.2-0.7-0.5-0.9-0.8v3.2h-2.1V31z M38.7,36.8
					c0.3,0,0.5,0,0.7-0.1c0.2-0.1,0.4-0.2,0.6-0.4c0.2-0.2,0.3-0.4,0.4-0.7c0.1-0.3,0.1-0.5,0.1-0.9v0c0-0.3,0-0.6-0.1-0.8
					c-0.1-0.3-0.2-0.5-0.4-0.7c-0.2-0.2-0.4-0.3-0.6-0.4c-0.2-0.1-0.5-0.1-0.7-0.1s-0.5,0-0.7,0.1c-0.2,0.1-0.4,0.2-0.6,0.4
					c-0.2,0.2-0.3,0.4-0.4,0.7c-0.1,0.3-0.1,0.5-0.1,0.8v0c0,0.3,0,0.6,0.1,0.8c0.1,0.3,0.2,0.5,0.4,0.7c0.2,0.2,0.4,0.3,0.6,0.4
					C38.2,36.8,38.5,36.8,38.7,36.8z"/>
				<path class="st1" d="M46.4,38.6c-0.4,0-0.7,0-1-0.1c-0.3-0.1-0.6-0.2-0.8-0.4c-0.2-0.2-0.4-0.4-0.6-0.7c-0.1-0.3-0.2-0.6-0.2-1
					v0c0-0.4,0.1-0.8,0.2-1.1s0.4-0.5,0.6-0.7c0.3-0.2,0.6-0.3,1-0.4c0.4-0.1,0.8-0.1,1.2-0.1c0.4,0,0.7,0,1,0.1
					c0.3,0.1,0.6,0.1,0.8,0.2v-0.1c0-0.4-0.1-0.8-0.4-1s-0.7-0.3-1.2-0.3c-0.4,0-0.8,0-1.1,0.1s-0.6,0.2-1,0.3l-0.5-1.6
					c0.4-0.2,0.8-0.3,1.3-0.4c0.4-0.1,1-0.2,1.6-0.2c0.6,0,1.1,0.1,1.5,0.2c0.4,0.1,0.8,0.4,1,0.6c0.3,0.3,0.5,0.6,0.6,1
					c0.1,0.4,0.2,0.9,0.2,1.4v4.4h-2.1v-0.8c-0.3,0.3-0.6,0.5-0.9,0.7S46.9,38.6,46.4,38.6z M47,37.2c0.5,0,0.9-0.1,1.2-0.4
					c0.3-0.2,0.5-0.6,0.5-1v-0.4c-0.2-0.1-0.4-0.2-0.6-0.2c-0.2-0.1-0.5-0.1-0.7-0.1c-0.5,0-0.8,0.1-1.1,0.3
					c-0.3,0.2-0.4,0.4-0.4,0.8v0c0,0.3,0.1,0.5,0.3,0.7C46.4,37.1,46.7,37.2,47,37.2z"/>
				<path class="st1" d="M60.4,38.6c-0.7,0-1.5-0.1-2.2-0.4s-1.4-0.7-2-1.2l1.3-1.5c0.4,0.4,0.9,0.7,1.4,0.9s1,0.3,1.5,0.3
					c0.4,0,0.8-0.1,1-0.2s0.4-0.4,0.4-0.7v0c0-0.1,0-0.3-0.1-0.4s-0.1-0.2-0.3-0.3c-0.1-0.1-0.3-0.2-0.6-0.3c-0.3-0.1-0.6-0.2-1-0.3
					c-0.5-0.1-0.9-0.3-1.3-0.4c-0.4-0.1-0.7-0.3-1-0.6c-0.3-0.2-0.5-0.5-0.7-0.8c-0.2-0.3-0.2-0.7-0.2-1.2v0c0-0.4,0.1-0.9,0.2-1.2
					s0.4-0.7,0.7-0.9s0.7-0.5,1.1-0.6c0.4-0.1,0.9-0.2,1.4-0.2c0.7,0,1.4,0.1,2,0.3s1.2,0.5,1.7,0.9l-1.1,1.6
					c-0.4-0.3-0.9-0.5-1.3-0.7c-0.4-0.2-0.8-0.3-1.3-0.3s-0.7,0.1-0.9,0.2s-0.3,0.4-0.3,0.6v0c0,0.2,0,0.3,0.1,0.4
					c0.1,0.1,0.2,0.2,0.3,0.3c0.2,0.1,0.4,0.2,0.7,0.3c0.3,0.1,0.6,0.2,1,0.3c0.5,0.1,0.9,0.3,1.3,0.4c0.4,0.2,0.7,0.4,1,0.6
					c0.3,0.2,0.5,0.5,0.6,0.8c0.1,0.3,0.2,0.7,0.2,1.1v0c0,0.5-0.1,0.9-0.3,1.3c-0.2,0.4-0.4,0.7-0.7,1c-0.3,0.3-0.7,0.5-1.1,0.6
					C61.5,38.6,61,38.6,60.4,38.6z"/>
				<path class="st1" d="M67.8,38.6c-0.4,0-0.7,0-1-0.1c-0.3-0.1-0.6-0.2-0.8-0.4c-0.2-0.2-0.4-0.4-0.6-0.7c-0.1-0.3-0.2-0.6-0.2-1
					v0c0-0.4,0.1-0.8,0.2-1.1s0.4-0.5,0.6-0.7c0.3-0.2,0.6-0.3,1-0.4c0.4-0.1,0.8-0.1,1.2-0.1c0.4,0,0.7,0,1,0.1
					c0.3,0.1,0.6,0.1,0.8,0.2v-0.1c0-0.4-0.1-0.8-0.4-1s-0.7-0.3-1.2-0.3c-0.4,0-0.8,0-1.1,0.1s-0.6,0.2-1,0.3l-0.5-1.6
					c0.4-0.2,0.8-0.3,1.3-0.4c0.4-0.1,1-0.2,1.6-0.2c0.6,0,1.1,0.1,1.5,0.2c0.4,0.1,0.8,0.4,1,0.6c0.3,0.3,0.5,0.6,0.6,1
					c0.1,0.4,0.2,0.9,0.2,1.4v4.4h-2.1v-0.8c-0.3,0.3-0.6,0.5-0.9,0.7S68.3,38.6,67.8,38.6z M68.5,37.2c0.5,0,0.9-0.1,1.2-0.4
					c0.3-0.2,0.5-0.6,0.5-1v-0.4c-0.2-0.1-0.4-0.2-0.6-0.2c-0.2-0.1-0.5-0.1-0.7-0.1c-0.5,0-0.8,0.1-1.1,0.3
					c-0.3,0.2-0.4,0.4-0.4,0.8v0c0,0.3,0.1,0.5,0.3,0.7C67.8,37.1,68.1,37.2,68.5,37.2z"/>
				<path class="st1" d="M74,31h2.1v1.1c0.1-0.2,0.3-0.3,0.4-0.5c0.1-0.1,0.3-0.3,0.5-0.4c0.2-0.1,0.4-0.2,0.6-0.3
					c0.2-0.1,0.5-0.1,0.7-0.1c0.8,0,1.4,0.2,1.9,0.7c0.4,0.5,0.7,1.2,0.7,2v4.9h-2.1v-4.2c0-0.5-0.1-0.9-0.3-1.1
					c-0.2-0.3-0.5-0.4-1-0.4c-0.4,0-0.7,0.1-1,0.4c-0.2,0.3-0.4,0.6-0.4,1.1v4.2H74V31z"/>
				<path class="st1" d="M85.2,38.6c-0.3,0-0.6,0-0.9-0.1c-0.3-0.1-0.5-0.2-0.7-0.4c-0.2-0.2-0.3-0.4-0.4-0.7
					c-0.1-0.3-0.2-0.6-0.2-1.1v-3.6h-0.9V31H83v-1.9h2.1V31h1.8v1.8h-1.8V36c0,0.5,0.2,0.7,0.7,0.7c0.4,0,0.7-0.1,1-0.3v1.7
					c-0.2,0.1-0.5,0.2-0.7,0.3S85.6,38.6,85.2,38.6z"/>
				<path class="st1" d="M88.5,28.3h2.2v1.9h-2.2V28.3z M88.6,31h2.1v7.5h-2.1V31z"/>
				<path class="st1" d="M94.9,38.6c-0.4,0-0.7,0-1-0.1c-0.3-0.1-0.6-0.2-0.8-0.4c-0.2-0.2-0.4-0.4-0.6-0.7c-0.1-0.3-0.2-0.6-0.2-1
					v0c0-0.4,0.1-0.8,0.2-1.1s0.4-0.5,0.6-0.7c0.3-0.2,0.6-0.3,1-0.4c0.4-0.1,0.8-0.1,1.2-0.1c0.4,0,0.7,0,1,0.1
					c0.3,0.1,0.6,0.1,0.8,0.2v-0.1c0-0.4-0.1-0.8-0.4-1s-0.7-0.3-1.2-0.3c-0.4,0-0.8,0-1.1,0.1s-0.6,0.2-1,0.3l-0.5-1.6
					c0.4-0.2,0.8-0.3,1.3-0.4c0.4-0.1,1-0.2,1.6-0.2c0.6,0,1.1,0.1,1.5,0.2c0.4,0.1,0.8,0.4,1,0.6c0.3,0.3,0.5,0.6,0.6,1
					c0.1,0.4,0.2,0.9,0.2,1.4v4.4h-2.1v-0.8c-0.3,0.3-0.6,0.5-0.9,0.7S95.4,38.6,94.9,38.6z M95.5,37.2c0.5,0,0.9-0.1,1.2-0.4
					c0.3-0.2,0.5-0.6,0.5-1v-0.4c-0.2-0.1-0.4-0.2-0.6-0.2c-0.2-0.1-0.5-0.1-0.7-0.1c-0.5,0-0.8,0.1-1.1,0.3
					c-0.3,0.2-0.4,0.4-0.4,0.8v0c0,0.3,0.1,0.5,0.3,0.7C94.9,37.1,95.2,37.2,95.5,37.2z"/>
				<path class="st1" d="M104.4,40.8c-0.6,0-1.2-0.1-1.8-0.2c-0.6-0.1-1.1-0.3-1.6-0.6l0.7-1.6c0.4,0.2,0.8,0.4,1.2,0.5
					c0.4,0.1,0.8,0.2,1.4,0.2c0.7,0,1.3-0.2,1.6-0.5c0.3-0.3,0.5-0.9,0.5-1.5v-0.4c-0.3,0.4-0.7,0.7-1,0.9c-0.4,0.2-0.8,0.3-1.4,0.3
					c-0.4,0-0.9-0.1-1.3-0.2c-0.4-0.2-0.8-0.4-1.1-0.7c-0.3-0.3-0.6-0.7-0.7-1.1c-0.2-0.4-0.3-0.9-0.3-1.5v0c0-0.6,0.1-1.1,0.3-1.5
					c0.2-0.4,0.4-0.8,0.7-1.1c0.3-0.3,0.7-0.5,1.1-0.7s0.8-0.2,1.2-0.2c0.6,0,1.1,0.1,1.4,0.3c0.4,0.2,0.7,0.5,1,0.8v-1h2.1v5.8
					c0,1.3-0.3,2.3-1,3c-0.4,0.4-0.8,0.6-1.3,0.8C105.7,40.7,105.1,40.8,104.4,40.8z M104.6,36.1c0.3,0,0.5,0,0.7-0.1
					s0.4-0.2,0.6-0.4c0.2-0.2,0.3-0.3,0.4-0.6c0.1-0.2,0.1-0.4,0.1-0.7v0c0-0.3,0-0.5-0.1-0.7c-0.1-0.2-0.2-0.4-0.4-0.6
					c-0.2-0.2-0.4-0.3-0.6-0.4s-0.5-0.1-0.7-0.1c-0.3,0-0.5,0-0.7,0.1c-0.2,0.1-0.4,0.2-0.6,0.4c-0.2,0.2-0.3,0.3-0.4,0.6
					c-0.1,0.2-0.1,0.4-0.1,0.7v0c0,0.5,0.2,0.9,0.5,1.3C103.7,36,104.1,36.1,104.6,36.1z"/>
				<path class="st1" d="M114.1,38.7c-0.6,0-1.1-0.1-1.6-0.3c-0.5-0.2-0.9-0.5-1.3-0.8s-0.6-0.8-0.8-1.2c-0.2-0.5-0.3-1-0.3-1.5v0
					c0-0.5,0.1-1,0.3-1.5c0.2-0.5,0.5-0.9,0.9-1.2c0.4-0.4,0.8-0.6,1.3-0.8c0.5-0.2,1-0.3,1.6-0.3c0.6,0,1.1,0.1,1.6,0.3
					c0.5,0.2,0.9,0.5,1.3,0.8c0.4,0.3,0.6,0.8,0.8,1.2c0.2,0.5,0.3,1,0.3,1.5v0c0,0.5-0.1,1-0.3,1.5c-0.2,0.5-0.5,0.9-0.9,1.2
					c-0.4,0.4-0.8,0.6-1.3,0.8C115.3,38.6,114.7,38.7,114.1,38.7z M114.2,36.8c0.3,0,0.6-0.1,0.8-0.2c0.2-0.1,0.4-0.3,0.6-0.4
					c0.2-0.2,0.3-0.4,0.4-0.7s0.1-0.5,0.1-0.8v0c0-0.3,0-0.5-0.1-0.8c-0.1-0.2-0.2-0.5-0.4-0.7c-0.2-0.2-0.4-0.3-0.6-0.5
					c-0.2-0.1-0.5-0.2-0.8-0.2c-0.3,0-0.6,0.1-0.8,0.2c-0.2,0.1-0.4,0.3-0.6,0.4s-0.3,0.4-0.4,0.7c-0.1,0.2-0.1,0.5-0.1,0.8v0
					c0,0.3,0,0.5,0.1,0.8c0.1,0.2,0.2,0.5,0.4,0.7c0.2,0.2,0.4,0.3,0.6,0.5C113.6,36.8,113.9,36.8,114.2,36.8z"/>
			</g>
		</g>
	</g>
</g>
</svg>
