<?xml version="1.0" encoding="UTF-8" standalone="no"?>
<svg width="25px" height="44px" viewBox="0 0 25 44" version="1.1" xmlns="http://www.w3.org/2000/svg" xmlns:xlink="http://www.w3.org/1999/xlink">
    <!-- Generator: Sketch 46.2 (44496) - http://www.bohemiancoding.com/sketch -->
    <title>Page 1</title>
    <desc>Created with Sketch.</desc>
    <defs>
        <polygon id="path-1" points="24.9322222 24.6658967 24.9322222 0.277173913 0 0.277173913 0 24.6658967 24.9322222 24.6658967"></polygon>
        <polygon id="path-3" points="0.000527777778 25 24.9311528 25 24.9311528 0.0684722222 0.000527777778 0.0684722222"></polygon>
    </defs>
    <g id="OP-7---Final" stroke="none" stroke-width="1" fill="none" fill-rule="evenodd">
        <g id="Desktop-07" transform="translate(-46.000000, -388.000000)">
            <g id="SLIDE" transform="translate(0.000000, 194.000000)">
                <g id="Page-1" transform="translate(58.500000, 215.500000) scale(-1, -1) translate(-58.500000, -215.500000) translate(46.000000, 193.000000)">
                    <g id="Group-3">
                        <mask id="mask-2" fill="white">
                            <use xlink:href="#path-1"></use>
                        </mask>
                        <g id="Clip-2"></g>
                        <path d="M23.2599444,24.1902174 C22.6116111,24.8244565 21.5510556,24.8244565 20.9038333,24.1902174 L0.486055556,4.21847826 C-0.162277778,3.58423913 -0.162277778,2.54673913 0.486055556,1.91304348 L1.67161111,0.752717391 C2.31994444,0.118478261 3.3805,0.118478261 4.02883333,0.752717391 L24.4466111,20.7244565 C25.0943889,21.3586957 25.0949444,22.3956522 24.4466111,23.0298913 L23.2599444,24.1902174 Z" id="Fill-1" fill="#FFFFFF" mask="url(#mask-2)"></path>
                    </g>
                    <g id="Group-6" transform="translate(0.000000, 19.000000)">
                        <mask id="mask-4" fill="white">
                            <use xlink:href="#path-3"></use>
                        </mask>
                        <g id="Clip-5"></g>
                        <path d="M0.486777778,23.3280556 C-0.161555556,22.6797222 -0.161555556,21.6191667 0.486777778,20.9713889 L20.9023333,0.554722222 C21.5506667,-0.0936111111 22.6112222,-0.0936111111 23.259,0.554722222 L24.4451111,1.74083333 C25.0928889,2.38916667 25.0934444,3.44972222 24.4451111,4.0975 L4.029,24.5141667 C3.38066667,25.1619444 2.32011111,25.1625 1.67233333,24.5141667 L0.486777778,23.3280556 Z" id="Fill-4" fill="#FFFFFF" mask="url(#mask-4)"></path>
                    </g>
                </g>
            </g>
        </g>
    </g>
</svg>