<?xml version="1.0" encoding="UTF-8" standalone="no"?>
<svg width="12px" height="21px" viewBox="0 0 12 21" version="1.1" xmlns="http://www.w3.org/2000/svg" xmlns:xlink="http://www.w3.org/1999/xlink">
    <!-- Generator: Sketch 46.2 (44496) - http://www.bohemiancoding.com/sketch -->
    <title>Page 1</title>
    <desc>Created with Sketch.</desc>
    <defs>
        <polygon id="path-1" points="11.6504348 13.0897007 11.6504348 0.18860979 0 0.18860979 0 13.0897007"></polygon>
        <polygon id="path-3" points="4.17218182 4.36363636 0.401454545 4.36363636 0.401454545 0.413618182 4.17218182 0.413618182 4.17218182 4.36363636"></polygon>
    </defs>
    <g id="OP-7---Final" stroke="none" stroke-width="1" fill="none" fill-rule="evenodd">
        <g id="Desktop-08" transform="translate(-751.000000, -12.000000)">
            <g id="Page-1" transform="translate(751.000000, 12.000000)">
                <g id="Group-3">
                    <mask id="mask-2" fill="white">
                        <use xlink:href="#path-1"></use>
                    </mask>
                    <g id="Clip-2"></g>
                    <path d="M0,5.68578462 C0.114782609,2.17742098 2.37547826,0.18860979 5.9253913,0.18860979 C9.36052174,0.18860979 11.6509565,1.79073566 11.6509565,4.80214825 C11.6509565,9.16695944 7.12747826,9.3597986 7.12747826,13.0897007 L4.60852174,13.0897007 C4.60852174,8.64181259 8.58730435,8.61412028 8.58730435,5.27140699 C8.58730435,3.66928112 7.41391304,2.89591049 5.63947826,2.89591049 C3.77895652,2.89591049 2.66191304,3.83493147 2.57582609,5.71347692 L0,5.68578462 Z" id="Fill-1" fill="#1D1D1B" mask="url(#mask-2)"></path>
                </g>
                <g id="Group-6" transform="translate(3.272727, 16.363636)">
                    <mask id="mask-4" fill="white">
                        <use xlink:href="#path-3"></use>
                    </mask>
                    <g id="Clip-5"></g>
                    <path d="M4.17218182,2.35870909 C4.17218182,3.52543636 3.36436364,4.3638 2.28709091,4.3638 C1.20981818,4.3638 0.401454545,3.52543636 0.401454545,2.35870909 C0.401454545,1.22143636 1.20981818,0.413618182 2.28709091,0.413618182 C3.36436364,0.413618182 4.17218182,1.22143636 4.17218182,2.35870909" id="Fill-4" fill="#1D1D1B" mask="url(#mask-4)"></path>
                </g>
            </g>
        </g>
    </g>
</svg>