<?xml version="1.0" encoding="UTF-8" standalone="no"?>
<svg width="27px" height="29px" viewBox="0 0 27 29" version="1.1" xmlns="http://www.w3.org/2000/svg" xmlns:xlink="http://www.w3.org/1999/xlink">
    <!-- Generator: Sketch 46.2 (44496) - http://www.bohemiancoding.com/sketch -->
    <title>Page 1</title>
    <desc>Created with Sketch.</desc>
    <defs>
        <polygon id="path-1" points="6.148 0.5602 6.148 16.9542 0.2867 16.9542 0.2867 0.5602 6.148 0.5602"></polygon>
        <polygon id="path-3" points="11.6849 20 0.4179 20 0.4179 0.4922 11.6849 0.4922"></polygon>
        <polygon id="path-5" points="0.296 0.654 7.807 0.654 7.807 8.1641 0.296 8.1641 0.296 0.654"></polygon>
    </defs>
    <g id="OP-7---Final" stroke="none" stroke-width="1" fill="none" fill-rule="evenodd">
        <g id="Desktop-08" transform="translate(-681.000000, -680.000000)">
            <g id="Page-1" transform="translate(681.000000, 679.000000)">
                <g id="Group-3" transform="translate(20.000000, 12.346500)">
                    <mask id="mask-2" fill="white">
                        <use xlink:href="#path-1"></use>
                    </mask>
                    <g id="Clip-2"></g>
                    <path d="M2.8967,0.5602 L0.2867,0.5602 L0.2867,2.1632 L2.8967,2.1632 C3.8117,2.1632 4.5437,2.8952 4.5437,3.8112 L4.5437,8.3452 C4.5437,9.2612 3.8117,9.9932 2.8967,9.9932 L2.1647,9.9932 L2.1647,16.9542 L3.7657,16.9542 L3.7657,11.4592 C5.1417,11.0922 6.1487,9.8112 6.1487,8.3452 L6.1487,3.8112 C6.1487,2.0252 4.6817,0.5602 2.8967,0.5602" id="Fill-1" fill="#0079C8" mask="url(#mask-2)"></path>
                </g>
                <path d="M3.2522,14.5097 L5.8152,14.5097 L5.8152,12.9067 L3.2522,12.9067 C1.4672,12.9067 0.0002,14.3717 0.0002,16.1577 L0.0002,20.6917 C0.0002,22.1577 1.0072,23.4397 2.3822,23.8047 L2.3822,29.3017 L3.9842,29.3017 L3.9842,22.3397 L3.2522,22.3397 C2.3372,22.3397 1.6052,21.6077 1.6052,20.6917 L1.6052,16.1577 C1.6052,15.2417 2.3372,14.5097 3.2522,14.5097" id="Fill-4" fill="#0079C8"></path>
                <g id="Group-8" transform="translate(7.000000, 9.346500)">
                    <mask id="mask-4" fill="white">
                        <use xlink:href="#path-3"></use>
                    </mask>
                    <g id="Clip-7"></g>
                    <path d="M11.6369,3.5602 C11.6369,3.1932 11.5469,2.8732 11.4089,2.5522 C11.1349,1.8662 10.6769,1.3162 10.0349,0.9502 C9.5309,0.6742 8.9809,0.4922 8.3859,0.4922 L3.6689,0.4922 C3.0739,0.4922 2.4799,0.6742 2.0219,0.9502 C1.4259,1.3162 0.9219,1.8662 0.6479,2.5522 C0.5109,2.8732 0.4629,3.1932 0.4179,3.5602 L0.4179,3.7442 L0.4179,9.9252 C0.4179,10.3382 0.5109,10.7502 0.6479,11.1172 C0.9219,11.7562 1.3339,12.3072 1.9299,12.6732 C1.9769,12.6732 1.9769,12.7192 2.0219,12.7192 C2.2509,12.8562 2.5239,12.9932 2.7999,13.0402 L2.7999,19.9092 L4.4019,19.9092 L4.4019,11.5742 L4.2199,11.5742 L3.6689,11.5742 C3.2569,11.5742 2.9379,11.4362 2.6169,11.2072 C2.2509,10.8882 2.0219,10.4762 2.0219,9.9252 L2.0219,3.7892 C2.0219,2.8732 2.7539,2.1862 3.6689,2.1862 L8.4329,2.1862 C9.3489,2.1862 10.0819,2.9192 10.0819,3.8352 L10.0819,10.0182 C10.0819,10.5212 9.8529,10.9322 9.5309,11.2542 C9.2559,11.4822 8.8909,11.6652 8.4789,11.6652 L7.9739,11.6652 L7.7459,11.6652 L7.7459,20.0002 L9.3489,20.0002 L9.3489,13.0852 C9.6239,12.9932 9.8989,12.9022 10.1269,12.7642 C10.1729,12.7642 10.2199,12.7192 10.2199,12.7192 C10.7679,12.3532 11.2259,11.8032 11.4549,11.2072 C11.5929,10.8412 11.6849,10.4302 11.6849,10.0182 L11.6849,3.7892 C11.6849,3.6982 11.6369,3.6522 11.6369,3.5602" id="Fill-6" fill="#0079C8" mask="url(#mask-4)"></path>
                </g>
                <g id="Group-11" transform="translate(9.000000, 0.346500)">
                    <mask id="mask-6" fill="white">
                        <use xlink:href="#path-5"></use>
                    </mask>
                    <g id="Clip-10"></g>
                    <path d="M4.05,2.2111 C5.241,2.2111 6.203,3.1721 6.203,4.3631 C6.203,5.5531 5.241,6.5161 4.05,6.5161 C2.861,6.5161 1.9,5.5531 1.9,4.3631 C1.9,3.1721 2.861,2.2111 4.05,2.2111 M4.05,8.1641 C6.158,8.1641 7.807,6.4701 7.807,4.4091 C7.807,2.3481 6.111,0.6531 4.05,0.6531 C1.99,0.6531 0.296,2.3481 0.296,4.4091 C0.296,6.4701 1.944,8.1641 4.05,8.1641" id="Fill-9" fill="#0079C8" mask="url(#mask-6)"></path>
                </g>
                <path d="M21.7512,5.6254 C22.9422,5.6254 23.9032,6.5874 23.9032,7.7774 C23.9032,8.9684 22.9422,9.9304 21.7512,9.9304 C20.5622,9.9304 19.5992,8.9684 19.5992,7.7774 C19.5542,6.5874 20.5622,5.6254 21.7512,5.6254 M21.7512,11.5334 C23.8592,11.5334 25.5082,9.8384 25.5082,7.7774 C25.5082,5.7174 23.8122,4.0224 21.7512,4.0224 C19.6912,4.0224 17.9972,5.7174 17.9972,7.7774 C17.9972,9.8384 19.6452,11.5334 21.7512,11.5334" id="Fill-12" fill="#0079C8"></path>
                <path d="M4.3967,5.6254 C5.5867,5.6254 6.5487,6.5874 6.5487,7.7774 C6.5487,8.9684 5.5867,9.9304 4.3967,9.9304 C3.2067,9.9304 2.2447,8.9684 2.2447,7.7774 C2.1987,6.5874 3.2067,5.6254 4.3967,5.6254 M4.3967,11.5334 C6.4577,11.5334 8.1517,9.8384 8.1517,7.7774 C8.1517,5.7174 6.4577,4.0224 4.3967,4.0224 C2.2897,4.0224 0.5957,5.7174 0.5957,7.7774 C0.5957,9.8384 2.2897,11.5334 4.3967,11.5334" id="Fill-14" fill="#0079C8"></path>
            </g>
        </g>
    </g>
</svg>