<?xml version="1.0" encoding="UTF-8" standalone="no"?>
<svg width="15px" height="24px" viewBox="0 0 15 24" version="1.1" xmlns="http://www.w3.org/2000/svg" xmlns:xlink="http://www.w3.org/1999/xlink">
    <!-- Generator: Sketch 46.2 (44496) - http://www.bohemiancoding.com/sketch -->
    <title>Fill 1</title>
    <desc>Created with Sketch.</desc>
    <defs></defs>
    <g id="OP-7---Final" stroke="none" stroke-width="1" fill="none" fill-rule="evenodd">
        <g id="Mobile-07" transform="translate(-27.000000, -381.000000)" fill="#0079C8">
            <g id="btns-secundarios" transform="translate(-4.000000, 318.000000)">
                <g id="ubicación" transform="translate(31.000000, 50.000000)">
                    <path d="M7.5,18.0218163 C6.21394764,18.0218163 5.17194202,19.0641917 5.17194202,20.3498743 C5.17194202,21.6359266 6.21394764,22.678302 7.5,22.678302 C8.78605236,22.678302 9.82842775,21.6359266 9.82842775,20.3498743 C9.82842775,19.0641917 8.78605236,18.0218163 7.5,18.0218163 L7.5,18.0218163 Z M7.5,14.7763644 C3.27540305,14.7763644 1.77636444,17.859858 1.77636444,20.5003698 C1.77636444,22.5215205 4.96191392,28.743603 7.5,33.1630676 C10.0384558,28.743603 13.2240053,22.5207809 13.2240053,20.5003698 C13.2240053,17.859858 11.7249667,14.7763644 7.5,14.7763644 L7.5,14.7763644 Z M7.5,36.6651383 L6.73642952,35.3787162 C6.04718237,34.216536 0,23.9292264 0,20.5003698 C0,16.8881083 2.34691614,13 7.5,13 C12.6530839,13 15,16.8881083 15,20.5003698 C15,23.9292264 8.9531874,34.216536 8.26357048,35.3787162 L7.5,36.6651383 Z" id="Fill-1"></path>
                </g>
            </g>
        </g>
    </g>
</svg>