<?xml version="1.0" encoding="UTF-8" standalone="no"?>
<svg width="21px" height="21px" viewBox="0 0 21 21" version="1.1" xmlns="http://www.w3.org/2000/svg" xmlns:xlink="http://www.w3.org/1999/xlink">
    <!-- Generator: Sketch 46.2 (44496) - http://www.bohemiancoding.com/sketch -->
    <title>Page 1</title>
    <desc>Created with Sketch.</desc>
    <defs></defs>
    <g id="OP-7---Final" stroke="none" stroke-width="1" fill="none" fill-rule="evenodd">
        <g id="Desktop-08" transform="translate(-488.000000, -11.000000)" stroke="#000000" stroke-width="0.5" fill="#1D1D1B">
            <g id="Page-1" transform="translate(489.000000, 12.000000)">
                <path d="M1.48570806,8.12387903 C1.48570806,9.04997581 1.65732097,9.91754032 2.00115968,10.7235081 C2.34407903,11.5300887 2.81938548,12.237379 3.42707903,12.8441532 C4.03354677,13.4512339 4.7408371,13.9308306 5.54772419,14.2820242 C6.35430484,14.6335242 7.22064355,14.8094274 8.14765968,14.8094274 C9.05812742,14.8094274 9.92078871,14.6335242 10.73595,14.2820242 C11.5501919,13.9308306 12.2571758,13.4512339 12.8565952,12.8441532 C13.4557081,12.237379 13.9307081,11.5300887 14.2825145,10.7235081 C14.6337081,9.91754032 14.8099177,9.04997581 14.8099177,8.12387903 C14.8099177,7.21310484 14.6337081,6.34983065 14.2825145,5.53528226 C13.9307081,4.72073387 13.4557081,4.01375 12.8565952,3.4146371 C12.2571758,2.81552419 11.5501919,2.34021774 10.73595,1.98841129 C9.92078871,1.63752419 9.05812742,1.46162097 8.14765968,1.46162097 C7.22064355,1.46162097 6.35430484,1.63752419 5.54772419,1.98841129 C4.7408371,2.34021774 4.03354677,2.81552419 3.42707903,3.4146371 C2.81938548,4.01375 2.34407903,4.72073387 2.00115968,5.53528226 C1.65732097,6.34983065 1.48570806,7.21310484 1.48570806,8.12387903 M14.114579,13.6590081 L18.7986919,18.343121 C18.9258694,18.5030887 18.9902242,18.6823629 18.9902242,18.8818629 C18.9902242,19.0813629 18.9258694,19.2535887 18.7986919,19.3970081 C18.7180952,19.4769919 18.6344339,19.5327661 18.5467887,19.5649435 C18.4588371,19.597121 18.3672081,19.61275 18.2712887,19.61275 C18.1753694,19.61275 18.0831274,19.597121 17.9954823,19.5649435 C17.9075306,19.5327661 17.8315306,19.4769919 17.7680952,19.3970081 L13.0122726,14.6414919 C12.3252081,15.1529597 11.5704177,15.5522661 10.7479016,15.8400242 C9.92446613,16.1271694 9.05812742,16.2708952 8.14765968,16.2708952 C7.01317581,16.2708952 5.95499839,16.0554597 4.97251452,15.6242823 C3.99003065,15.1924919 3.1270629,14.609621 2.38453065,13.8744435 C1.64138548,13.1401855 1.05820806,12.2775242 0.634998387,11.2864597 C0.211482258,10.2960081 3.06451613e-05,9.24242742 3.06451613e-05,8.12387903 C3.06451613e-05,7.0056371 0.211482258,5.95052419 0.634998387,4.96068548 C1.05820806,3.96962097 1.64138548,3.10665323 2.38453065,2.37208871 C3.1270629,1.63752419 3.99003065,1.0586371 4.97251452,0.634814516 C5.95499839,0.211604839 7.01317581,-0.000153225806 8.14765968,-0.000153225806 C9.26559516,-0.000153225806 10.3200952,0.211604839 11.3111597,0.634814516 C12.3013048,1.0586371 13.1636597,1.63752419 13.8988371,2.37208871 C14.6337081,3.10665323 15.2129016,3.96962097 15.6361113,4.96068548 C16.059321,5.95052419 16.2713855,7.0056371 16.2713855,8.12387903 C16.2713855,9.19400806 16.0798532,10.2046855 15.6964823,11.1546855 C15.3128048,12.1052984 14.7857081,12.9400726 14.114579,13.6590081" id="Fill-1"></path>
            </g>
        </g>
    </g>
</svg>