<?xml version="1.0" encoding="UTF-8" standalone="no"?>
<svg width="22px" height="20px" viewBox="0 0 22 20" version="1.1" xmlns="http://www.w3.org/2000/svg" xmlns:xlink="http://www.w3.org/1999/xlink">
    <!-- Generator: Sketch 46.2 (44496) - http://www.bohemiancoding.com/sketch -->
    <title>Page 1</title>
    <desc>Created with Sketch.</desc>
    <defs>
        <polygon id="path-1" points="21.6049167 19.24945 21.6049167 0.345583333 0 0.345583333 0 19.24945 21.6049167 19.24945"></polygon>
    </defs>
    <g id="OP-7---Final" stroke="none" stroke-width="1" fill="none" fill-rule="evenodd">
        <g id="Desktop-08" transform="translate(-749.000000, -12.000000)">
            <g id="Page-1" transform="translate(749.000000, 12.000000)">
                <g id="Group-3" transform="translate(0.000000, 0.571267)">
                    <mask id="mask-2" fill="white">
                        <use xlink:href="#path-1"></use>
                    </mask>
                    <g id="Clip-2"></g>
                    <path d="M20.2543917,16.6332833 L11.478225,17.8038667 L11.478225,2.96211667 L20.2543917,1.79245 L20.2543917,16.6332833 Z M1.349975,1.79245 L10.1270583,2.96211667 L10.1270583,17.8038667 L1.349975,16.6332833 L1.349975,1.79245 Z M20.8410583,0.35145 L10.801725,1.68978333 L0.764225,0.35145 C0.569891667,0.324866667 0.376475,0.38445 0.229808333,0.512783333 C0.0840583333,0.641116667 -0.000275,0.826283333 -0.000275,1.02061667 L-0.000275,17.2245333 C-0.000275,17.5627833 0.250891667,17.8487833 0.585475,17.8937 L10.713725,19.24395 C10.7430583,19.2485333 10.7723917,19.24945 10.801725,19.24945 C10.831975,19.24945 10.862225,19.2485333 10.8915583,19.24395 L21.0188917,17.8937 C21.3543917,17.8487833 21.6055583,17.5627833 21.6055583,17.2245333 L21.6055583,1.02061667 C21.6055583,0.826283333 21.521225,0.641116667 21.3745583,0.512783333 C21.2278917,0.38445 21.0353917,0.3267 20.8410583,0.35145 L20.8410583,0.35145 Z" id="Fill-1" fill="#000000" mask="url(#mask-2)"></path>
                </g>
                <path d="M3.29248333,5.63795833 L8.69348333,6.312625 C8.7219,6.31629167 8.7494,6.318125 8.77781667,6.318125 C9.11331667,6.318125 9.40481667,6.06879167 9.44698333,5.726875 C9.49373333,5.35654167 9.23065,5.01920833 8.86031667,4.97245833 L3.46023333,4.29779167 C3.0899,4.25104167 2.75165,4.51320833 2.70581667,4.88445833 C2.65998333,5.253875 2.92215,5.59120833 3.29248333,5.63795833" id="Fill-4" fill="#000000"></path>
                <path d="M8.8605,8.34854167 L3.4595,7.673875 C3.09008333,7.62529167 2.75183333,7.88929167 2.706,8.259625 C2.65925,8.62995833 2.92141667,8.96729167 3.29266667,9.01404167 L8.69275,9.68870833 C8.72208333,9.692375 8.74958333,9.69420833 8.778,9.69420833 C9.11258333,9.69420833 9.405,9.44395833 9.44716667,9.10204167 C9.493,8.732625 9.22991667,8.39529167 8.8605,8.34854167" id="Fill-6" fill="#000000"></path>
                <path d="M8.8605,11.7242583 L3.4595,11.0495917 C3.09008333,11.001925 2.75183333,11.265925 2.706,11.6353417 C2.65925,12.005675 2.92141667,12.3430083 3.29266667,12.3897583 L8.69275,13.064425 C8.72208333,13.0680917 8.74958333,13.069925 8.778,13.069925 C9.11258333,13.069925 9.405,12.819675 9.44716667,12.4777583 C9.493,12.1083417 9.22991667,11.7710083 8.8605,11.7242583" id="Fill-8" fill="#000000"></path>
                <path d="M8.8605,15.099975 L3.4595,14.4253083 C3.09008333,14.3785583 2.75183333,14.6416417 2.706,15.0110583 C2.65925,15.3813917 2.92141667,15.718725 3.29266667,15.765475 L8.69275,16.4401417 C8.72208333,16.4438083 8.74958333,16.4456417 8.778,16.4456417 C9.11258333,16.4456417 9.405,16.1953917 9.44716667,15.853475 C9.493,15.4840583 9.22991667,15.146725 8.8605,15.099975" id="Fill-10" fill="#000000"></path>
                <path d="M12.8271,6.31821667 C12.8546,6.31821667 12.8839333,6.31638333 12.9114333,6.31271667 L18.3124333,5.63805 C18.6827667,5.5913 18.9449333,5.25396667 18.8991,4.88455 C18.85235,4.5133 18.51135,4.25113333 18.1456,4.29788333 L12.7436833,4.97255 C12.3742667,5.0193 12.1121,5.35663333 12.15885,5.72605 C12.2001,6.06888333 12.4916,6.31821667 12.8271,6.31821667" id="Fill-12" fill="#000000"></path>
                <path d="M12.8271,9.694025 C12.8546,9.694025 12.8839333,9.69219167 12.9114333,9.688525 L18.3124333,9.01385833 C18.6827667,8.96710833 18.9449333,8.629775 18.8991,8.26035833 C18.85235,7.88910833 18.51135,7.62510833 18.1456,7.67369167 L12.7436833,8.34835833 C12.3742667,8.39510833 12.1121,8.73244167 12.15885,9.10185833 C12.2001,9.44469167 12.4916,9.694025 12.8271,9.694025" id="Fill-14" fill="#000000"></path>
                <path d="M12.8271,13.0697417 C12.8546,13.0697417 12.8839333,13.0679083 12.9114333,13.0642417 L18.3124333,12.389575 C18.6827667,12.342825 18.9449333,12.0054917 18.8991,11.636075 C18.85235,11.2657417 18.51135,11.0017417 18.1456,11.0494083 L12.7436833,11.724075 C12.3742667,11.770825 12.1121,12.1081583 12.15885,12.477575 C12.2001,12.8204083 12.4916,13.0697417 12.8271,13.0697417" id="Fill-16" fill="#000000"></path>
                <path d="M18.145325,14.4250333 L12.7434083,15.0997 C12.3739917,15.14645 12.111825,15.4837833 12.158575,15.8541167 C12.2007417,16.1960333 12.491325,16.4453667 12.826825,16.4453667 C12.8552417,16.4453667 12.8836583,16.4435333 12.9111583,16.4398667 L18.313075,15.7652 C18.6824917,15.71845 18.9446583,15.3811167 18.898825,15.0117 C18.852075,14.6413667 18.511075,14.3782833 18.145325,14.4250333" id="Fill-18" fill="#000000"></path>
            </g>
        </g>
    </g>
</svg>