<?xml version="1.0" encoding="UTF-8" standalone="no"?>
<svg width="30px" height="48px" viewBox="0 0 30 48" version="1.1" xmlns="http://www.w3.org/2000/svg" xmlns:xlink="http://www.w3.org/1999/xlink">
    <!-- Generator: Sketch 46.2 (44496) - http://www.bohemiancoding.com/sketch -->
    <title>Fill 1</title>
    <desc>Created with Sketch.</desc>
    <defs></defs>
    <g id="OP-7---Final" stroke="none" stroke-width="1" fill="none" fill-rule="evenodd">
        <g id="Desktop-07" transform="translate(-766.000000, -604.000000)" fill="#FFFFFF">
            <g id="btn-primarios" transform="translate(136.000000, 588.000000)">
                <g id="Group-4" transform="translate(599.000000, 0.000000)">
                    <path d="M46,26.0436326 C43.4278953,26.0436326 41.343884,28.1283834 41.343884,30.6997486 C41.343884,33.2718533 43.4278953,35.3566041 46,35.3566041 C48.5721047,35.3566041 50.6568555,33.2718533 50.6568555,30.6997486 C50.6568555,28.1283834 48.5721047,26.0436326 46,26.0436326 L46,26.0436326 Z M46,19.5527289 C37.5508061,19.5527289 34.5527289,25.719716 34.5527289,31.0007395 C34.5527289,35.043041 40.9238278,47.487206 46,56.3261352 C51.0769117,47.487206 57.4480106,35.0415619 57.4480106,31.0007395 C57.4480106,25.719716 54.4499334,19.5527289 46,19.5527289 L46,19.5527289 Z M46,63.3302766 L44.472859,60.7574323 C43.0943647,58.433072 31,37.8584529 31,31.0007395 C31,23.7762165 35.6938323,16 46,16 C56.3061677,16 61,23.7762165 61,31.0007395 C61,37.8584529 48.9063748,58.433072 47.527141,60.7574323 L46,63.3302766 Z" id="Fill-1"></path>
                </g>
            </g>
        </g>
    </g>
</svg>