<?xml version="1.0" encoding="UTF-8" standalone="no"?>
<svg width="9px" height="12px" viewBox="0 0 9 12" version="1.1" xmlns="http://www.w3.org/2000/svg" xmlns:xlink="http://www.w3.org/1999/xlink">
    <!-- Generator: Sketch 46.2 (44496) - http://www.bohemiancoding.com/sketch -->
    <title>Mask</title>
    <desc>Created with Sketch.</desc>
    <defs>
        <path d="M189.153127,20.2776716 C189.273875,20.4185444 189.470747,20.4185444 189.591495,20.2776716 L193.395435,15.8576781 C193.661306,15.548808 194.091424,15.548808 194.35767,15.8589906 L195.174408,16.8118507 C195.440278,17.1220334 195.440278,17.6251505 195.174408,17.9357707 L189.855491,24.1411737 C189.58962,24.4513564 189.158377,24.4513564 188.892131,24.1411737 L183.573214,17.9357707 C183.307343,17.625588 183.307343,17.1224709 183.573214,16.8118507 L184.389951,15.8589906 C184.655822,15.548808 185.08594,15.548808 185.352186,15.8576781 L189.153127,20.2776716 Z" id="path-1"></path>
    </defs>
    <g id="OP-7---Final" stroke="none" stroke-width="1" fill="none" fill-rule="evenodd">
        <g id="Desktop-07" transform="translate(-719.000000, -1688.000000)">
            <g id="NOTAS" transform="translate(87.000000, 1352.000000)">
                <g id="btn-notas" transform="translate(447.000000, 322.000000)">
                    <mask id="mask-2" fill="white">
                        <use xlink:href="#path-1"></use>
                    </mask>
                    <use id="Mask" fill="#0079C8" fill-rule="nonzero" transform="translate(189.373811, 20.000000) scale(-1, 1) rotate(-270.000000) translate(-189.373811, -20.000000) " xlink:href="#path-1"></use>
                </g>
            </g>
        </g>
    </g>
</svg>