<?xml version="1.0" encoding="UTF-8" standalone="no"?>
<svg width="13px" height="21px" viewBox="0 0 13 21" version="1.1" xmlns="http://www.w3.org/2000/svg" xmlns:xlink="http://www.w3.org/1999/xlink">
    <!-- Generator: Sketch 46.2 (44496) - http://www.bohemiancoding.com/sketch -->
    <title>Page 1</title>
    <desc>Created with Sketch.</desc>
    <defs></defs>
    <g id="OP-7---Final" stroke="none" stroke-width="1" fill="none" fill-rule="evenodd">
        <g id="Desktop-08" transform="translate(-789.000000, -12.000000)">
            <g id="Page-1" transform="translate(789.000000, 12.000000)">
                <path d="M6.61484687,0.32638125 C11.2566594,0.32638125 12.9035969,3.7141 12.9035969,6.61513125 C12.9035969,8.83488125 9.40375312,15.6716625 6.61484687,20.5271625 C3.82634687,15.6716625 0.326503125,8.83569375 0.326503125,6.61513125 C0.326503125,3.7141 1.97344062,0.32638125 6.61484687,0.32638125 Z" id="Fill-1" fill="#1D1D1B"></path>
                <path d="M6.61484687,3.8920375 C5.20190937,3.8920375 4.05709687,5.03725625 4.05709687,6.4497875 C4.05709687,7.862725 5.20190937,9.00794375 6.61484687,9.00794375 C8.02778437,9.00794375 9.17300312,7.862725 9.17300312,6.4497875 C9.17300312,5.03725625 8.02778437,3.8920375 6.61484687,3.8920375 L6.61484687,3.8920375 Z" id="Path" fill="#F5F5F5"></path>
            </g>
        </g>
    </g>
</svg>