<?xml version="1.0" encoding="UTF-8" standalone="no"?>
<svg width="20px" height="31px" viewBox="0 0 20 31" version="1.1" xmlns="http://www.w3.org/2000/svg" xmlns:xlink="http://www.w3.org/1999/xlink">
    <!-- Generator: Sketch 46.2 (44496) - http://www.bohemiancoding.com/sketch -->
    <title>Page 1</title>
    <desc>Created with Sketch.</desc>
    <defs></defs>
    <g id="OP-7---Final" stroke="none" stroke-width="1" fill="none" fill-rule="evenodd">
        <g id="Desktop-08" transform="translate(-419.000000, -679.000000)" fill="#0079C8">
            <g id="Page-1" transform="translate(419.000000, 679.000000)">
                <path d="M1.46526316,28.882 L17.9989474,28.882 L17.9989474,3.34831579 L1.46526316,3.34831579 L1.46526316,28.882 Z M19.2547368,29.482 C19.2547368,29.8441053 18.9621053,30.1377895 18.5989474,30.1377895 L0.655789474,30.1377895 C0.292631579,30.1377895 0,29.8441053 0,29.482 L0,2.74831579 C0,2.38621053 0.292631579,2.09357895 0.655789474,2.09357895 L18.5989474,2.09357895 C18.9621053,2.09357895 19.2547368,2.38621053 19.2547368,2.74831579 L19.2547368,29.482 Z" id="Fill-1"></path>
                <path d="M18.8271579,12.3041053 L0.836631579,12.3041053 C0.636631579,12.3041053 0.472421053,12.1409474 0.472421053,11.9388421 C0.472421053,11.7388421 0.636631579,11.5756842 0.836631579,11.5756842 L18.8271579,11.5756842 C19.0271579,11.5756842 19.1913684,11.7388421 19.1913684,11.9388421 C19.1913684,12.1409474 19.0271579,12.3041053 18.8271579,12.3041053" id="Fill-3"></path>
                <path d="M18.8271579,21.4807368 L0.836631579,21.4807368 C0.636631579,21.4807368 0.472421053,21.3175789 0.472421053,21.1165263 C0.472421053,20.9154737 0.636631579,20.7533684 0.836631579,20.7533684 L18.8271579,20.7533684 C19.0271579,20.7533684 19.1913684,20.9154737 19.1913684,21.1165263 C19.1913684,21.3175789 19.0271579,21.4807368 18.8271579,21.4807368" id="Fill-4"></path>
                <path d="M12.1389474,2.09357895 L15.4873684,2.09357895 L15.4873684,1.25568421 L12.1389474,1.25568421 L12.1389474,2.09357895 Z M16.7431579,2.902 C16.7431579,3.26410526 16.38,3.34831579 16.0178947,3.34831579 L11.4684211,3.34831579 C11.1063158,3.34831579 10.8831579,3.26410526 10.8831579,2.902 L10.8831579,0.655684211 C10.8831579,0.293578947 11.1063158,0.000947368421 11.4684211,0.000947368421 L16.0178947,0.000947368421 C16.38,0.000947368421 16.7431579,0.293578947 16.7431579,0.655684211 L16.7431579,2.902 Z" id="Fill-5"></path>
                <path d="M9,17.7893684 L10.2547368,17.7893684 L10.2547368,15.2777895 L9,15.2777895 L9,17.7893684 Z M10.8831579,18.0535789 C10.8831579,18.2535789 10.72,18.4177895 10.5189474,18.4177895 L8.52736842,18.4177895 C8.32526316,18.4177895 8.16210526,18.2535789 8.16210526,18.0535789 L8.16210526,14.8051579 C8.16210526,14.6041053 8.32526316,14.4409474 8.52736842,14.4409474 L10.5189474,14.4409474 C10.72,14.4409474 10.8831579,14.6041053 10.8831579,14.8051579 L10.8831579,18.0535789 Z" id="Fill-6"></path>
                <path d="M13.6042105,17.7893684 L14.8589474,17.7893684 L14.8589474,15.2777895 L13.6042105,15.2777895 L13.6042105,17.7893684 Z M15.4873684,18.0535789 C15.4873684,18.2535789 15.3252632,18.4177895 15.1231579,18.4177895 L13.1315789,18.4177895 C12.9294737,18.4177895 12.7663158,18.2535789 12.7663158,18.0535789 L12.7663158,14.8051579 C12.7663158,14.6041053 12.9294737,14.4409474 13.1315789,14.4409474 L15.1231579,14.4409474 C15.3252632,14.4409474 15.4873684,14.6041053 15.4873684,14.8051579 L15.4873684,18.0535789 Z" id="Fill-7"></path>
                <path d="M4.39578947,17.7893684 L5.65052632,17.7893684 L5.65052632,15.2777895 L4.39578947,15.2777895 L4.39578947,17.7893684 Z M6.48842105,18.0535789 C6.48842105,18.2535789 6.32526316,18.4177895 6.12315789,18.4177895 L4.13157895,18.4177895 C3.92947368,18.4177895 3.76736842,18.2535789 3.76736842,18.0535789 L3.76736842,14.8051579 C3.76736842,14.6041053 3.92947368,14.4409474 4.13157895,14.4409474 L6.12315789,14.4409474 C6.32526316,14.4409474 6.48842105,14.6041053 6.48842105,14.8051579 L6.48842105,18.0535789 Z" id="Fill-8"></path>
                <path d="M9,8.58094737 L10.2547368,8.58094737 L10.2547368,6.06936842 L9,6.06936842 L9,8.58094737 Z M10.8831579,9.05357895 C10.8831579,9.25568421 10.72,9.41778947 10.5189474,9.41778947 L8.52736842,9.41778947 C8.32526316,9.41778947 8.16210526,9.25568421 8.16210526,9.05357895 L8.16210526,5.80515789 C8.16210526,5.60515789 8.32526316,5.44094737 8.52736842,5.44094737 L10.5189474,5.44094737 C10.72,5.44094737 10.8831579,5.60515789 10.8831579,5.80515789 L10.8831579,9.05357895 Z" id="Fill-9"></path>
                <path d="M13.6042105,8.58094737 L14.8589474,8.58094737 L14.8589474,6.06936842 L13.6042105,6.06936842 L13.6042105,8.58094737 Z M15.4873684,9.05357895 C15.4873684,9.25568421 15.3252632,9.41778947 15.1231579,9.41778947 L13.1315789,9.41778947 C12.9294737,9.41778947 12.7663158,9.25568421 12.7663158,9.05357895 L12.7663158,5.80515789 C12.7663158,5.60515789 12.9294737,5.44094737 13.1315789,5.44094737 L15.1231579,5.44094737 C15.3252632,5.44094737 15.4873684,5.60515789 15.4873684,5.80515789 L15.4873684,9.05357895 Z" id="Fill-10"></path>
                <path d="M4.39578947,8.58094737 L5.65052632,8.58094737 L5.65052632,6.06936842 L4.39578947,6.06936842 L4.39578947,8.58094737 Z M6.48842105,9.05357895 C6.48842105,9.25568421 6.32526316,9.41778947 6.12315789,9.41778947 L4.13157895,9.41778947 C3.92947368,9.41778947 3.76736842,9.25568421 3.76736842,9.05357895 L3.76736842,5.80515789 C3.76736842,5.60515789 3.92947368,5.44094737 4.13157895,5.44094737 L6.12315789,5.44094737 C6.32526316,5.44094737 6.48842105,5.60515789 6.48842105,5.80515789 L6.48842105,9.05357895 Z" id="Fill-11"></path>
                <path d="M6.06947368,28.882 L13.1863158,28.882 L13.1863158,25.1146316 L6.06947368,25.1146316 L6.06947368,28.882 Z M14.6505263,29.482 C14.6505263,29.8441053 14.3568421,30.1377895 13.9947368,30.1377895 L5.46842105,30.1377895 C5.10736842,30.1377895 4.81368421,29.8441053 4.81368421,29.482 L4.81368421,24.5146316 C4.81368421,24.1525263 5.10736842,23.8598947 5.46842105,23.8598947 L13.9947368,23.8598947 C14.3568421,23.8598947 14.6505263,24.1525263 14.6505263,24.5146316 L14.6505263,29.482 Z" id="Fill-12"></path>
                <path d="M9.73168421,29.8565263 C9.53168421,29.8565263 9.418,29.6933684 9.418,29.4923158 L9.418,24.3944211 C9.418,24.1933684 9.53168421,24.0302105 9.73168421,24.0302105 C9.93273684,24.0302105 10.0464211,24.1933684 10.0464211,24.3944211 L10.0464211,29.4923158 C10.0464211,29.6933684 9.93273684,29.8565263 9.73168421,29.8565263" id="Fill-13"></path>
            </g>
        </g>
    </g>
</svg>