<?xml version="1.0" encoding="UTF-8" standalone="no"?>
<svg width="29px" height="28px" viewBox="0 0 29 28" version="1.1" xmlns="http://www.w3.org/2000/svg" xmlns:xlink="http://www.w3.org/1999/xlink">
    <!-- Generator: Sketch 46.2 (44496) - http://www.bohemiancoding.com/sketch -->
    <title>Page 1</title>
    <desc>Created with Sketch.</desc>
    <defs>
        <polygon id="path-1" points="20.0154706 0.675652174 0 0.675652174 0 14.1248435 0 27.5740348 20.0154706 27.5740348 20.0154706 0.675652174"></polygon>
        <polygon id="path-3" points="2.83146 28 5.4828 28 5.4828 0.675652174 0.18012 0.675652174 0.18012 28 2.83146 28"></polygon>
    </defs>
    <g id="OP-7---Final" stroke="none" stroke-width="1" fill="none" fill-rule="evenodd">
        <g id="Desktop-08" transform="translate(-110.000000, -681.000000)">
            <g id="Page-1" transform="translate(110.000000, 681.000000)">
                <g id="Group-3">
                    <mask id="mask-2" fill="white">
                        <use xlink:href="#path-1"></use>
                    </mask>
                    <g id="Clip-2"></g>
                    <path d="M1.81958824,2.46777391 L12.7371176,2.46777391 L12.7371176,6.0542087 C12.7371176,7.04394783 13.5536471,7.84864348 14.5579412,7.84864348 L18.1971176,7.84864348 L18.1971176,25.7808174 L1.81958824,25.7808174 L1.81958824,2.46777391 Z M16.9099412,6.0542087 L14.5579412,6.0542087 L14.5579412,3.73629565 L16.9099412,6.0542087 Z M0,25.7808174 C0,26.7705565 0.816529412,27.5740348 1.81958824,27.5740348 L18.1971176,27.5740348 C19.2001765,27.5740348 20.0154706,26.7705565 20.0154706,25.7808174 L20.0154706,7.84864348 C20.0154706,7.11212174 19.6337647,6.20273043 19.1062941,5.68412174 L14.9334706,1.57177391 C14.406,1.05194783 13.4832353,0.674556522 12.7371176,0.674556522 L1.81958824,0.674556522 C0.816529412,0.674556522 0,1.47925217 0,2.46777391 L0,25.7808174 Z" id="Fill-1" fill="#0079C8" mask="url(#mask-2)"></path>
                </g>
                <g id="Group-6" transform="translate(23.000000, 0.000000)">
                    <mask id="mask-4" fill="white">
                        <use xlink:href="#path-3"></use>
                    </mask>
                    <g id="Clip-5"></g>
                    <path d="M3.41292,24.3892174 L2.83092,25.570087 L2.24892,24.3892174 C2.09412,24.073913 1.94772,23.4433043 1.94772,23.0914783 L1.94772,6.95252174 L3.71532,6.95252174 L3.71532,23.0914783 C3.71532,23.4433043 3.56772,24.073913 3.41292,24.3892174 L3.41292,24.3892174 Z M1.94772,5.15808696 L3.71532,5.15808696 L3.71532,2.46765217 L1.94772,2.46765217 L1.94772,5.15808696 Z M3.71532,0.674434783 L1.94772,0.674434783 C0.97212,0.674434783 0.18012,1.48034783 0.18012,2.46765217 L0.18012,23.0914783 C0.18012,23.7233043 0.38892,24.6253913 0.66852,25.1902609 L1.64532,27.1733913 C1.90452,27.6993043 2.33652,28 2.83092,28 C3.32652,28 3.75852,27.6993043 4.01652,27.1733913 L4.99452,25.1902609 C5.27292,24.6253913 5.48292,23.7233043 5.48292,23.0914783 L5.48292,2.46765217 C5.48292,1.48034783 4.68972,0.674434783 3.71532,0.674434783 L3.71532,0.674434783 Z" id="Fill-4" fill="#0079C8" mask="url(#mask-4)"></path>
                </g>
                <path d="M4.93265749,7 L10.0660753,7 C10.5818248,7 11,6.55223881 11,6 C11,5.44776119 10.5818248,5 10.0660753,5 L4.93265749,5 C4.41690804,5 4,5.44776119 4,6 C4,6.55223881 4.41690804,7 4.93265749,7" id="Fill-7" fill="#0079C8"></path>
                <path d="M15.1423584,8.75 L4.85764158,8.75 C4.38401862,8.75 4,9.19776119 4,9.74864315 C4,10.3022388 4.38401862,10.75 4.85764158,10.75 L15.1423584,10.75 C15.6159814,10.75 16,10.3022388 16,9.74864315 C16,9.19776119 15.6159814,8.75 15.1423584,8.75" id="Fill-9" fill="#0079C8"></path>
                <path d="M15.1423584,12.5 L4.85764158,12.5 C4.38401862,12.5 4,12.9480652 4,13.4993211 C4,14.0532926 4.38401862,14.5 4.85764158,14.5 L15.1423584,14.5 C15.6159814,14.5 16,14.0532926 16,13.4993211 C16,12.9480652 15.6159814,12.5 15.1423584,12.5" id="Fill-11" fill="#0079C8"></path>
                <path d="M15.1423584,16.25 L4.85764158,16.25 C4.38401862,16.25 4,16.6967074 4,17.2493211 C4,17.8032926 4.38401862,18.25 4.85764158,18.25 L15.1423584,18.25 C15.6159814,18.25 16,17.8032926 16,17.2493211 C16,16.6967074 15.6159814,16.25 15.1423584,16.25" id="Fill-13" fill="#0079C8"></path>
                <path d="M15.1423584,20 L4.85764158,20 C4.38401862,20 4,20.4467074 4,20.9993211 C4,21.5519348 4.38401862,22 4.85764158,22 L15.1423584,22 C15.6159814,22 16,21.5519348 16,20.9993211 C16,20.4467074 15.6159814,20 15.1423584,20" id="Fill-15" fill="#0079C8"></path>
            </g>
        </g>
    </g>
</svg>