<?xml version="1.0" encoding="UTF-8" standalone="no"?>
<svg width="40px" height="39px" viewBox="0 0 40 39" version="1.1" xmlns="http://www.w3.org/2000/svg" xmlns:xlink="http://www.w3.org/1999/xlink">
    <!-- Generator: Sketch 46.2 (44496) - http://www.bohemiancoding.com/sketch -->
    <title>Page 1</title>
    <desc>Created with Sketch.</desc>
    <defs>
        <polygon id="path-1" points="0.170206897 0.213793103 3.80744828 0.213793103 3.80744828 9.128 0.170206897 9.128 0.170206897 0.213793103"></polygon>
        <polygon id="path-3" points="39.097931 35.8616552 39.097931 0.621655172 0.000551724138 0.621655172 0.000551724138 35.8616552"></polygon>
    </defs>
    <g id="OP-7---Final" stroke="none" stroke-width="1" fill="none" fill-rule="evenodd">
        <g id="Desktop-08" transform="translate(-195.000000, -527.000000)">
            <g id="Page-1" transform="translate(195.000000, 527.000000)">
                <path d="M9.55434483,9.33241379 L10.1129655,9.33241379 C10.9626207,9.33241379 11.6522759,8.64275862 11.6522759,7.79310345 L11.6522759,1.95724138 C11.6522759,1.10758621 10.9626207,0.417931034 10.1129655,0.417931034 L9.55434483,0.417931034 C8.70468966,0.417931034 8.01503448,1.10758621 8.01503448,1.95724138 L8.01503448,7.79310345 C8.01503448,8.64275862 8.70468966,9.33241379 9.55434483,9.33241379" id="Fill-1" fill="#FFFFFF"></path>
                <g id="Group-5" transform="translate(27.586207, 0.165379)">
                    <mask id="mask-2" fill="white">
                        <use xlink:href="#path-1"></use>
                    </mask>
                    <g id="Clip-4"></g>
                    <path d="M1.70951724,9.128 L2.26951724,9.128 C3.11917241,9.128 3.80744828,8.43834483 3.80744828,7.58868966 L3.80744828,1.75282759 C3.80744828,0.903172414 3.11917241,0.213517241 2.26951724,0.213517241 L1.70951724,0.213517241 C0.859862069,0.213517241 0.170206897,0.903172414 0.170206897,1.75282759 L0.170206897,7.58868966 C0.170206897,8.43834483 0.861241379,9.128 1.70951724,9.128" id="Fill-3" fill="#FFFFFF" mask="url(#mask-2)"></path>
                </g>
                <g id="Group-8" transform="translate(0.000000, 2.924000)">
                    <mask id="mask-4" fill="white">
                        <use xlink:href="#path-3"></use>
                    </mask>
                    <g id="Clip-7"></g>
                    <path d="M36.5964138,33.3595862 L2.50262069,33.3595862 L2.50262069,10.5264828 L36.5964138,10.5264828 L36.5977931,33.3595862 L36.5964138,33.3595862 Z M36.5964138,0.621655172 L32.6446897,0.621655172 L32.6446897,5.23406897 C32.6446897,6.772 31.3950345,7.62027586 29.8543448,7.62027586 L29.2957241,7.62027586 C27.7577931,7.62027586 26.5067586,6.37062069 26.5067586,4.82993103 L26.5067586,0.621655172 L12.904,0.621655172 L12.904,4.86855172 C12.904,6.40786207 11.6515862,7.66027586 10.1136552,7.66027586 L9.55503448,7.66027586 C8.01572414,7.66027586 6.76468966,6.40786207 6.76468966,4.86855172 L6.76468966,0.621655172 L2.50262069,0.621655172 C1.12193103,0.621655172 0.000551724138,1.74441379 0.000551724138,3.12510345 L0.000551724138,33.3595862 C0.000551724138,34.7388966 1.12193103,35.8616552 2.50262069,35.8616552 L36.5964138,35.8616552 C37.9757241,35.8616552 39.0984828,34.7388966 39.0984828,33.3595862 L39.0984828,3.12510345 C39.0957241,1.74441379 37.9757241,0.621655172 36.5964138,0.621655172 L36.5964138,0.621655172 Z" id="Fill-6" fill="#FFFFFF" mask="url(#mask-4)"></path>
                </g>
                <path d="M17.4895172,20.4633103 L21.6095172,20.4633103 C21.7708966,20.4633103 21.9046897,20.3129655 21.9046897,20.1253793 L21.9046897,16.0371034 C21.9046897,15.8495172 21.7708966,15.6977931 21.6095172,15.6977931 L17.4895172,15.6977931 C17.3281379,15.6977931 17.1943448,15.8495172 17.1943448,16.0371034 L17.1943448,20.1253793 C17.1943448,20.3129655 17.3281379,20.4633103 17.4895172,20.4633103" id="Fill-9" fill="#FFFFFF"></path>
                <path d="M23.8431724,20.4633103 L27.9617931,20.4633103 C28.1245517,20.4633103 28.2555862,20.3129655 28.2555862,20.1253793 L28.2555862,16.0371034 C28.2555862,15.8495172 28.1245517,15.6977931 27.9617931,15.6977931 L23.8431724,15.6977931 C23.6804138,15.6977931 23.548,15.8495172 23.548,16.0371034 L23.548,20.1253793 C23.548,20.3129655 23.6804138,20.4633103 23.8431724,20.4633103" id="Fill-11" fill="#FFFFFF"></path>
                <path d="M30.1969655,20.4633103 L34.3142069,20.4633103 C34.4783448,20.4633103 34.6093793,20.3129655 34.6093793,20.1253793 L34.6093793,16.0371034 C34.6093793,15.8495172 34.4783448,15.6977931 34.3142069,15.6977931 L30.1969655,15.6977931 C30.0342069,15.6977931 29.9004138,15.8495172 29.9004138,16.0371034 L29.9004138,20.1253793 C29.9004138,20.3129655 30.0342069,20.4633103 30.1969655,20.4633103" id="Fill-13" fill="#FFFFFF"></path>
                <path d="M4.78344828,33.8468966 L8.90206897,33.8468966 C9.06482759,33.8468966 9.19586207,33.6965517 9.19586207,33.5089655 L9.19586207,29.422069 C9.19586207,29.2344828 9.06482759,29.0813793 8.90206897,29.0813793 L4.78344828,29.0813793 C4.61931034,29.0813793 4.48827586,29.2344828 4.48827586,29.422069 L4.48827586,33.5089655 C4.48827586,33.6965517 4.61931034,33.8468966 4.78344828,33.8468966" id="Fill-15" fill="#FFFFFF"></path>
                <path d="M11.1357241,33.8468966 L15.2557241,33.8468966 C15.4184828,33.8468966 15.5508966,33.6965517 15.5508966,33.5089655 L15.5508966,29.422069 C15.5508966,29.2344828 15.4184828,29.0813793 15.2557241,29.0813793 L11.1357241,29.0813793 C10.9743448,29.0813793 10.8405517,29.2344828 10.8405517,29.422069 L10.8405517,33.5089655 C10.8405517,33.6965517 10.9743448,33.8468966 11.1357241,33.8468966" id="Fill-17" fill="#FFFFFF"></path>
                <path d="M17.4895172,33.8468966 L21.6095172,33.8468966 C21.7708966,33.8468966 21.9046897,33.6965517 21.9046897,33.5089655 L21.9046897,29.422069 C21.9046897,29.2344828 21.7708966,29.0813793 21.6095172,29.0813793 L17.4895172,29.0813793 C17.3281379,29.0813793 17.1943448,29.2344828 17.1943448,29.422069 L17.1943448,33.5089655 C17.1943448,33.6965517 17.3281379,33.8468966 17.4895172,33.8468966" id="Fill-19" fill="#FFFFFF"></path>
                <path d="M23.8431724,33.8468966 L27.9617931,33.8468966 C28.1245517,33.8468966 28.2555862,33.6965517 28.2555862,33.5089655 L28.2555862,29.422069 C28.2555862,29.2344828 28.1245517,29.0813793 27.9617931,29.0813793 L23.8431724,29.0813793 C23.6804138,29.0813793 23.548,29.2344828 23.548,29.422069 L23.548,33.5089655 C23.548,33.6965517 23.6804138,33.8468966 23.8431724,33.8468966" id="Fill-21" fill="#FFFFFF"></path>
                <path d="M4.78344828,27.1550345 L8.90206897,27.1550345 C9.06482759,27.1550345 9.19586207,27.0046897 9.19586207,26.8171034 L9.19586207,22.7288276 C9.19586207,22.5412414 9.06482759,22.3895172 8.90206897,22.3895172 L4.78344828,22.3895172 C4.61931034,22.3895172 4.48827586,22.5412414 4.48827586,22.7288276 L4.48827586,26.8171034 C4.48827586,27.0046897 4.61931034,27.1550345 4.78344828,27.1550345" id="Fill-23" fill="#FFFFFF"></path>
                <path d="M11.1357241,27.1550345 L15.2557241,27.1550345 C15.4184828,27.1550345 15.5508966,27.0046897 15.5508966,26.8171034 L15.5508966,22.7288276 C15.5508966,22.5412414 15.4184828,22.3895172 15.2557241,22.3895172 L11.1357241,22.3895172 C10.9743448,22.3895172 10.8405517,22.5412414 10.8405517,22.7288276 L10.8405517,26.8171034 C10.8405517,27.0046897 10.9743448,27.1550345 11.1357241,27.1550345" id="Fill-25" fill="#FFFFFF"></path>
                <path d="M17.4895172,27.1550345 L21.6095172,27.1550345 C21.7708966,27.1550345 21.9046897,27.0046897 21.9046897,26.8171034 L21.9046897,22.7288276 C21.9046897,22.5412414 21.7708966,22.3895172 21.6095172,22.3895172 L17.4895172,22.3895172 C17.3281379,22.3895172 17.1943448,22.5412414 17.1943448,22.7288276 L17.1943448,26.8171034 C17.1943448,27.0046897 17.3281379,27.1550345 17.4895172,27.1550345" id="Fill-27" fill="#FFFFFF"></path>
                <path d="M23.8431724,27.1550345 L27.9617931,27.1550345 C28.1245517,27.1550345 28.2555862,27.0046897 28.2555862,26.8171034 L28.2555862,22.7288276 C28.2555862,22.5412414 28.1245517,22.3895172 27.9617931,22.3895172 L23.8431724,22.3895172 C23.6804138,22.3895172 23.548,22.5412414 23.548,22.7288276 L23.548,26.8171034 C23.548,27.0046897 23.6804138,27.1550345 23.8431724,27.1550345" id="Fill-29" fill="#FFFFFF"></path>
                <path d="M30.1969655,27.1550345 L34.3142069,27.1550345 C34.4783448,27.1550345 34.6093793,27.0046897 34.6093793,26.8171034 L34.6093793,22.7288276 C34.6093793,22.5412414 34.4783448,22.3895172 34.3142069,22.3895172 L30.1969655,22.3895172 C30.0342069,22.3895172 29.9004138,22.5412414 29.9004138,22.7288276 L29.9004138,26.8171034 C29.9004138,27.0046897 30.0342069,27.1550345 30.1969655,27.1550345" id="Fill-31" fill="#FFFFFF"></path>
            </g>
        </g>
    </g>
</svg>