<?xml version="1.0" encoding="UTF-8" standalone="no"?>
<svg width="31px" height="28px" viewBox="0 0 31 28" version="1.1" xmlns="http://www.w3.org/2000/svg" xmlns:xlink="http://www.w3.org/1999/xlink">
    <!-- Generator: Sketch 46.2 (44496) - http://www.bohemiancoding.com/sketch -->
    <title>Fill 1</title>
    <desc>Created with Sketch.</desc>
    <defs></defs>
    <g id="OP-7---Final" stroke="none" stroke-width="1" fill="none" fill-rule="evenodd">
        <g id="Desktop-08" transform="translate(-406.000000, -682.000000)" fill="#0079C8">
            <path d="M410.177293,709.428005 L410.177293,709.428005 L415.67451,709.428005 L415.67451,707.504491 L410.178432,707.504491 L410.177293,709.428005 Z M410.177293,703.271964 L415.67451,703.271964 L415.67451,705.196047 L410.178432,705.196047 L410.178432,703.271964 L410.177293,703.271964 Z M410.177293,698.984773 L415.67451,698.984773 L415.67451,700.908286 L410.178432,700.908286 L410.178432,698.984773 L410.177293,698.984773 Z M406,697.554949 L406,709.482669 L407.923514,709.482669 L407.923514,697.554949 C407.923514,697.114785 408.307875,696.730993 408.748039,696.730993 L415.673371,696.730993 L415.673371,694.80691 L408.748039,694.80691 C407.208317,694.80691 406,696.016366 406,697.554949 L406,697.554949 Z M434.251961,682 L420.344924,682 C418.805771,682 417.597454,683.209456 417.597454,684.748039 L417.597454,709.428005 L419.520968,709.428005 L419.520968,684.748039 C419.520968,684.307875 419.905329,683.923514 420.344924,683.923514 L434.251961,683.923514 C434.692125,683.923514 435.076486,684.307875 435.076486,684.748039 L435.076486,709.428005 L437,709.428005 L437,684.748039 C437,683.264121 435.735879,682 434.251961,682 L434.251961,682 Z M421.774747,709.428005 L432.768042,709.428005 L432.768042,707.504491 L421.774747,707.504491 L421.774747,709.428005 Z M421.774747,705.195478 L432.768042,705.195478 L432.768042,703.271964 L421.774747,703.271964 L421.774747,705.195478 Z M421.774747,700.908286 L432.768042,700.908286 L432.768042,698.984773 L421.774747,698.984773 L421.774747,700.908286 Z M421.774747,696.67519 L432.768042,696.67519 L432.768042,694.751676 L421.774747,694.751676 L421.774747,696.67519 Z M421.774747,692.442663 L432.768042,692.442663 L432.768042,690.519149 L421.774747,690.519149 L421.774747,692.442663 Z M421.774747,688.15604 L432.768042,688.15604 L432.768042,686.231958 L421.774747,686.231958 L421.774747,688.15604 Z" id="Fill-1"></path>
        </g>
    </g>
</svg>