<?xml version="1.0" encoding="utf-8"?>
<!-- Generator: Adobe Illustrator 21.0.0, SVG Export Plug-In . SVG Version: 6.00 Build 0)  -->
<svg version="1.1" id="Layer_1" xmlns="http://www.w3.org/2000/svg" xmlns:xlink="http://www.w3.org/1999/xlink" x="0px" y="0px"
	 viewBox="0 0 30 30" style="enable-background:new 0 0 30 30;" xml:space="preserve">
<style type="text/css">
	.st0{fill:#FFFFFF;}
	.st1{fill:#0079C8;}
</style>
<g>
	<circle class="st0" cx="15" cy="15" r="15"/>
	<g>
		<path class="st1" d="M24.2,10.8c-0.6,0.3-1.3,0.5-2.1,0.6c0.7-0.4,1.3-1.1,1.6-2c-0.7,0.4-1.5,0.7-2.3,0.9
			c-0.7-0.7-1.6-1.1-2.6-1.1c-2,0-3.6,1.6-3.6,3.6c0,0.3,0,0.6,0.1,0.8c-3-0.1-5.6-1.6-7.4-3.7c-0.3,0.5-0.5,1.1-0.5,1.8
			c0,1.2,0.6,2.3,1.6,3c-0.6,0-1.1-0.2-1.6-0.4c0,0,0,0,0,0c0,1.7,1.2,3.2,2.9,3.5c-0.3,0.1-0.6,0.1-0.9,0.1c-0.2,0-0.5,0-0.7-0.1
			c0.5,1.4,1.8,2.5,3.3,2.5c-1.2,1-2.8,1.5-4.5,1.5c-0.3,0-0.6,0-0.9-0.1c1.6,1,3.5,1.6,5.5,1.6c6.6,0,10.2-5.5,10.2-10.2
			c0-0.2,0-0.3,0-0.5C23.1,12.1,23.7,11.5,24.2,10.8L24.2,10.8z"/>
	</g>
</g>
</svg>
