<?xml version="1.0" encoding="UTF-8" standalone="no"?>
<svg width="24px" height="25px" viewBox="0 0 24 25" version="1.1" xmlns="http://www.w3.org/2000/svg" xmlns:xlink="http://www.w3.org/1999/xlink">
    <!-- Generator: Sketch 46.2 (44496) - http://www.bohemiancoding.com/sketch -->
    <title>Page 1</title>
    <desc>Created with Sketch.</desc>
    <defs></defs>
    <g id="OP-7---Final" stroke="none" stroke-width="1" fill="none" fill-rule="evenodd">
        <g id="Desktop-07" transform="translate(-111.000000, -761.000000)" fill="#0079C8">
            <g id="btn-secundarios" transform="translate(71.000000, 732.000000)">
                <g id="seguros" transform="translate(40.000000, 16.000000)">
                    <path d="M20.4670597,15.5097411 L21.8563189,15.5097411 L21.8563189,13.779031 L20.4670597,13.779031 L20.4670597,15.5097411 Z M19.6872597,29.0574212 L22.7091771,29.0574212 L22.7091771,16.7517303 L19.6872597,16.7517303 L19.6872597,29.0574212 Z M7.92681364,24.7858241 C7.83875929,24.7858241 7.73993848,24.7973597 7.63304281,24.8211997 C7.20546014,24.9104076 6.71635478,25.217252 6.14034863,25.7590361 C5.58472187,26.2815945 4.9787234,27.1036914 4.33888746,28.2030249 C4.07549346,28.663676 3.83478595,29.1366316 3.6229172,29.6107408 C3.40912587,30.0867726 3.22609587,30.5701102 3.07844143,31.045373 L2.99000256,31.3302999 L3.28646501,31.297616 C3.89592412,31.2303256 4.53691361,31 5.19174571,30.6139451 C5.83619585,30.2340426 6.36567547,29.8383748 6.76557293,29.4384773 C7.50845937,28.7286593 8.03178672,28.034991 8.3174827,27.380928 C8.60587029,26.7184055 8.72583953,26.1362471 8.67316073,25.6490643 C8.63547808,25.3829787 8.55280697,25.1676493 8.42706998,25.0030761 C8.35132017,24.9038708 8.20289669,24.7858241 7.92681364,24.7858241 L7.92681364,24.7858241 Z M20.8069726,33.6377852 L21.5898488,33.6377852 L22.5530633,30.2259677 L19.843758,30.2259677 L20.8069726,33.6377852 Z M11.9515509,33.7150731 C11.7562164,33.9184824 11.6300948,34.1714945 11.576647,34.4683415 C11.5224301,34.7655729 11.5405024,35.0635734 11.6308639,35.3531146 L11.7181492,35.6318893 L11.9423225,35.4446296 C12.1457319,35.2750577 12.3433735,35.0735709 12.5290951,34.8459369 C12.7213535,34.6098436 12.8632402,34.3645219 12.9516791,34.1172776 C13.0474237,33.816201 13.0458857,33.6112535 12.9489874,33.4666752 C12.9016919,33.3963086 12.8090233,33.3105614 12.6367598,33.2971033 C12.618303,33.2955652 12.5998462,33.2947962 12.5821584,33.2947962 C12.4006665,33.2947962 12.1461164,33.3682389 11.9515509,33.7150731 L11.9515509,33.7150731 Z M3.55754935,37.6090746 C2.90463984,37.6090746 2.41707255,37.4306588 2.10830556,37.0784414 C1.78261984,36.7073827 1.55537042,36.244809 1.43309408,35.7022558 C1.3077416,35.1466291 1.26429121,34.5502435 1.30351192,33.9300179 C1.34311715,33.3001794 1.41194565,32.7391694 1.50730582,32.2623686 L1.53191489,32.1397078 L1.43001794,32.0658805 C0.884773135,31.6717508 0.511791848,31.125737 0.32222507,30.4420661 C0.124198923,29.7310946 0.0157651884,29.0255063 0,28.3456806 C0,27.9384773 0.175724173,27.7600615 0.587926173,27.7535247 L0.58831069,27.7535247 C1.00666496,27.7535247 1.16893104,27.9123302 1.16893104,28.3010766 C1.16893104,28.7836452 1.20738272,29.2073827 1.28313253,29.5607537 C1.35888234,29.9160472 1.4588567,30.2186619 1.57959498,30.4601384 L1.79338631,30.8877211 L1.94027173,30.4324532 C2.09907716,29.9395027 2.28902845,29.4507819 2.50435786,28.9793643 C2.72045629,28.5075622 2.96039477,28.0319149 3.21648295,27.5674186 C3.94783389,26.2800564 4.69110484,25.3141502 5.4251474,24.6985388 C6.1534222,24.0879262 6.81902076,23.7080236 7.40348629,23.5695975 C7.57036657,23.5357601 7.73763138,23.5176878 7.89489874,23.5176878 C8.33517047,23.5176878 8.70815176,23.6530377 9.03499103,23.9302743 C9.48602922,24.3136375 9.73481159,24.81697 9.79556524,25.4683415 C9.84132274,26.098949 9.69443732,26.8483722 9.35760062,27.6927711 C9.02037939,28.5406306 8.39207895,29.4111766 7.4907716,30.2813381 C6.9205332,30.8354268 6.18072289,31.3614458 5.29133555,31.8455524 C4.51999487,32.2658293 3.76518841,32.4788516 3.0480646,32.4792361 C2.9542425,32.4792361 2.86118944,32.4753909 2.76813638,32.4684696 L2.59433479,32.4550115 L2.56126634,32.6261215 C2.47744168,33.0633171 2.4320687,33.7450654 2.42360933,34.7086644 C2.4182261,35.3496539 2.54280954,35.7899257 2.80389644,36.0533197 C2.97808254,36.2290438 3.20725455,36.3182517 3.48410664,36.3182517 C3.97128941,36.3182517 4.45501154,36.1825173 4.92181492,35.9145091 C5.3701615,35.6568829 5.75813894,35.3827224 6.07536529,35.098949 C6.07536529,35.098949 7.01858498,34.5167906 7.39656498,35.6349654 C7.58151756,36.0979236 8.01217637,36.3320943 8.6770059,36.3320943 C8.71430402,36.3320943 8.75237119,36.3317098 8.79120738,36.3301718 C9.44142528,36.3059472 9.95014099,36.2509613 10.3031274,36.1667521 L10.5284542,36.1133043 L10.4377083,35.900282 C10.1804665,35.2954371 10.1589336,34.5971546 10.3731095,33.8238913 C10.5869008,33.0521661 10.9844912,32.5303768 11.587798,32.2285311 C11.8488849,32.0943348 12.1142015,32.0262753 12.3799026,32.0262753 C12.5794668,32.0262753 12.7863368,32.0651115 12.9932069,32.1400923 C13.4726993,32.3142784 13.7760831,32.6311202 13.9210459,33.1094591 C14.0863881,33.6358626 14.049859,34.1353499 13.8099205,34.6379134 C13.5592156,35.1620097 13.2585235,35.6176621 12.915919,35.9910279 L12.6159959,36.3182517 L13.0601128,36.3182517 C13.4784671,36.3182517 13.8606767,36.2332735 14.1952064,36.0663932 C14.5189695,35.9045117 14.8211997,35.6926429 15.0942066,35.4373238 C15.0942066,35.4373238 15.8932325,34.8097924 16.753012,35.5788259 C17.0190977,35.7564727 17.4232248,35.9052807 17.9876955,36.0333248 C18.5344783,36.1575237 19.2842861,36.2367342 20.2167393,36.2698026 L20.4189951,36.2767239 L20.4189951,34.7578826 L20.2236606,34.7578826 C20.0640861,34.7578826 19.9187388,34.7155857 19.7783902,34.6290695 C19.6549603,34.5525506 19.5869008,34.4521917 19.5638298,34.3122276 L18.5187132,29.8387593 L18.5187132,18.2944117 L18.2687772,18.3670854 C17.828121,18.495514 17.5093566,18.7412202 17.3220969,19.0972827 C17.1452192,19.4329659 17.0556268,19.8159446 17.0556268,20.236606 L17.0556268,24.4516791 C17.0556268,24.8611894 16.8810561,25.0357601 16.4711612,25.0357601 C16.0616509,25.0357601 15.8870802,24.8611894 15.8870802,24.4516791 L15.8870802,20.236606 C15.8870802,19.4552679 16.1035632,18.7689054 16.5303768,18.1967444 C16.9521917,17.6315047 17.5666496,17.2762112 18.3568316,17.1397078 L18.5187132,17.111638 L18.5187132,16.1672648 C18.5187132,15.9923097 18.5717765,15.8534991 18.6805947,15.7446809 C18.789413,15.6358626 18.927839,15.5827993 19.1027942,15.5827993 L19.7368623,15.5827993 L19.7368623,13.4141246 C19.7368623,13.3026147 19.7764676,13.2107152 19.8622148,13.125737 C19.9483466,13.0399897 20.0394771,13 20.1506024,13 L22.3435017,13 C22.454627,13 22.546142,13.0399897 22.6318893,13.125737 C22.7176365,13.2107152 22.7572417,13.3026147 22.7572417,13.4141246 L22.7572417,15.5827993 L23.4155345,15.5827993 C23.5724173,15.5827993 23.7054601,15.6427839 23.8223532,15.7658293 C23.941938,15.8915663 24,16.0388362 24,16.2157139 L24,29.5930531 C24,29.6288131 23.9973084,29.6668803 23.9919251,29.7084081 L23.9565496,29.7260959 L22.7153294,34.3422199 C22.6641887,34.5217893 22.5869008,34.6498334 22.4869264,34.720969 C22.3831069,34.7940272 22.2362215,34.8313253 22.0512689,34.8313253 L21.8559344,34.8313253 L21.8559344,36.9269418 C21.8432453,37.1092028 21.7755704,37.2622405 21.6486798,37.3822097 C21.5229428,37.5021789 21.3675981,37.560241 21.1741861,37.560241 C19.8483722,37.560241 18.7713407,37.4518072 17.9715458,37.2380159 C17.1771341,37.0257626 16.5626762,36.7692899 16.145091,36.4747501 L16.020123,36.3874648 L15.904768,36.4874391 C15.3156883,36.9988464 14.5993335,37.344527 13.7756985,37.515637 C13.5407588,37.5644706 13.3081261,37.5894642 13.0839528,37.5894642 C12.537939,37.5894642 12.0142271,37.4414253 11.5281979,37.1491925 L11.4451423,37.0995898 L11.3555499,37.1353499 C10.682261,37.4014355 9.80287106,37.5487055 8.74314278,37.5725455 L8.6381697,37.5736991 C7.66688029,37.5736991 6.99051525,37.2706998 6.5702384,36.6473981 L6.46065112,36.485132 L6.29876955,36.5947193 C5.85734427,36.8942579 5.39438605,37.1418867 4.92258395,37.3306844 C4.46001025,37.5152525 4.00089721,37.6090746 3.55754935,37.6090746 L3.55754935,37.6090746 Z" id="Page-1"></path>
                </g>
            </g>
        </g>
    </g>
</svg>