<?xml version="1.0" encoding="UTF-8" standalone="no"?>
<svg width="17px" height="20px" viewBox="0 0 17 20" version="1.1" xmlns="http://www.w3.org/2000/svg" xmlns:xlink="http://www.w3.org/1999/xlink">
    <!-- Generator: Sketch 46.2 (44496) - http://www.bohemiancoding.com/sketch -->
    <title>Page 1</title>
    <desc>Created with Sketch.</desc>
    <defs></defs>
    <g id="OP-7---Final" stroke="none" stroke-width="1" fill="none" fill-rule="evenodd" stroke-linecap="round" stroke-linejoin="round">
        <g id="Desktop-08" transform="translate(-1060.000000, -12.000000)" stroke="#000000" fill="#000000">
            <path d="M1075.8913,27.9193493 L1071.55449,26.2192691 C1071.46101,26.1816932 1071.35836,26.1936075 1071.27405,26.2504296 L1068.95351,27.811204 C1068.53376,27.7131401 1066.87125,27.1714973 1065.09969,24.5311032 C1063.33729,21.9053729 1063.44818,20.1328904 1063.5105,19.6984763 L1065.83379,18.1413679 C1065.91536,18.0872952 1065.96485,17.9928972 1065.9676,17.8948333 L1066.03175,13.2381716 C1066.0345,13.0805361 1065.91169,12.9448963 1065.75222,12.932982 C1065.75222,12.932982 1065.5341,12.9174018 1065.20966,12.9174018 C1064.39583,12.9174018 1063.27863,13.0145492 1062.5931,13.4746248 C1062.02396,13.8558827 1061.51073,14.9483331 1061.22387,16.3982129 C1060.98375,17.6180548 1060.40453,21.9072059 1063.07792,25.8856685 C1065.76322,29.8934586 1070.3594,31.3497537 1072.79266,31.3497537 C1073.28298,31.3497537 1073.95752,31.2929316 1074.37268,31.0124871 C1075.40373,30.3205407 1076.04344,28.3775919 1076.06818,28.2969412 C1076.11767,28.1448047 1076.0416,27.9789208 1075.8913,27.9193493" id="Page-1"></path>
        </g>
    </g>
</svg>