<?xml version="1.0" encoding="UTF-8" standalone="no"?>
<svg width="30px" height="40px" viewBox="0 0 30 40" version="1.1" xmlns="http://www.w3.org/2000/svg" xmlns:xlink="http://www.w3.org/1999/xlink">
    <!-- Generator: Sketch 46.2 (44496) - http://www.bohemiancoding.com/sketch -->
    <title>Page 1</title>
    <desc>Created with Sketch.</desc>
    <defs></defs>
    <g id="OP-7---Final" stroke="none" stroke-width="1" fill="none" fill-rule="evenodd">
        <g id="Desktop-08" transform="translate(-487.000000, -526.000000)" fill="#FFFFFF">
            <g id="Page-1" transform="translate(487.000000, 525.000000)">
                <g id="Group-3" transform="translate(0.000000, 1.486421)">
                    <path d="M2.11405263,1.86031579 C1.923,1.86031579 1.76668421,2.01663158 1.76668421,2.20768421 L1.76668421,37.3597895 C1.76668421,37.5508421 1.923,37.7055789 2.11405263,37.7055789 L26.9066842,37.7055789 C27.0977368,37.7055789 27.2540526,37.5508421 27.2540526,37.3597895 L27.2540526,2.20768421 C27.2540526,2.01663158 27.0977368,1.86031579 26.9066842,1.86031579 L2.11405263,1.86031579 Z M26.9066842,39.474 L2.11405263,39.474 C0.948789474,39.474 -0.000157894737,38.5250526 -0.000157894737,37.3597895 L-0.000157894737,2.20768421 C-0.000157894737,1.04084211 0.948789474,0.0918947368 2.11405263,0.0918947368 L26.9066842,0.0918947368 C28.0719474,0.0918947368 29.0208947,1.04084211 29.0208947,2.20768421 L29.0208947,37.3597895 C29.0208947,38.5250526 28.0719474,39.474 26.9066842,39.474 L26.9066842,39.474 Z" id="Fill-1"></path>
                </g>
                <path d="M7.56631579,17.4971053 C6.76894737,17.4971053 6.12157895,18.1444737 6.12157895,18.9418421 C6.12157895,19.7376316 6.76894737,20.3865789 7.56631579,20.3865789 C8.36368421,20.3865789 9.01105263,19.7376316 9.01105263,18.9418421 C9.01105263,18.1444737 8.36368421,17.4971053 7.56631579,17.4971053 M7.56631579,22.1534211 C5.79473684,22.1534211 4.35473684,20.7134211 4.35473684,18.9418421 C4.35473684,17.1702632 5.79473684,15.7286842 7.56631579,15.7286842 C9.33789474,15.7286842 10.7778947,17.1702632 10.7778947,18.9418421 C10.7778947,20.7134211 9.33789474,22.1534211 7.56631579,22.1534211" id="Fill-4"></path>
                <path d="M14.5111579,17.4971053 C13.7137895,17.4971053 13.0648421,18.1444737 13.0648421,18.9418421 C13.0648421,19.7376316 13.7137895,20.3865789 14.5111579,20.3865789 C15.3085263,20.3865789 15.9558947,19.7376316 15.9558947,18.9418421 C15.9558947,18.1444737 15.3085263,17.4971053 14.5111579,17.4971053 M14.5111579,22.1534211 C12.7395789,22.1534211 11.298,20.7134211 11.298,18.9418421 C11.298,17.1702632 12.7395789,15.7286842 14.5111579,15.7286842 C16.2811579,15.7286842 17.7211579,17.1702632 17.7211579,18.9418421 C17.7211579,20.7134211 16.2811579,22.1534211 14.5111579,22.1534211" id="Fill-6"></path>
                <path d="M21.453,17.4971053 C20.6572105,17.4971053 20.0098421,18.1444737 20.0098421,18.9418421 C20.0098421,19.7376316 20.6572105,20.3865789 21.453,20.3865789 C22.2503684,20.3865789 22.8993158,19.7376316 22.8993158,18.9418421 C22.8993158,18.1444737 22.2503684,17.4971053 21.453,17.4971053 M21.453,22.1534211 C19.6814211,22.1534211 18.2414211,20.7134211 18.2414211,18.9418421 C18.2414211,17.1702632 19.6814211,15.7286842 21.453,15.7286842 C23.2245789,15.7286842 24.6661579,17.1702632 24.6661579,18.9418421 C24.6661579,20.7134211 23.2245789,22.1534211 21.453,22.1534211" id="Fill-8"></path>
                <path d="M14.5111579,24.4405263 C13.7137895,24.4405263 13.0664211,25.0894737 13.0664211,25.8852632 C13.0664211,26.6810526 13.7137895,27.33 14.5111579,27.33 C15.3085263,27.33 15.9558947,26.6810526 15.9558947,25.8852632 C15.9558947,25.0894737 15.3085263,24.4405263 14.5111579,24.4405263 M14.5111579,29.0984211 C12.7395789,29.0984211 11.298,27.6568421 11.298,25.8852632 C11.298,24.1136842 12.7395789,22.6721053 14.5111579,22.6721053 C16.2811579,22.6721053 17.7211579,24.1136842 17.7211579,25.8852632 C17.7211579,27.6568421 16.2811579,29.0984211 14.5111579,29.0984211" id="Fill-10"></path>
                <path d="M14.5111579,31.3839474 C13.7137895,31.3839474 13.0664211,32.0313158 13.0664211,32.8286842 C13.0664211,33.6244737 13.7137895,34.275 14.5111579,34.275 C15.3085263,34.275 15.9558947,33.6244737 15.9558947,32.8286842 C15.9558947,32.0313158 15.3085263,31.3839474 14.5111579,31.3839474 M14.5111579,36.0418421 C12.7395789,36.0418421 11.298,34.6002632 11.298,32.8286842 C11.298,31.0571053 12.7395789,29.6155263 14.5111579,29.6155263 C16.2811579,29.6155263 17.7211579,31.0571053 17.7211579,32.8286842 C17.7211579,34.6002632 16.2811579,36.0418421 14.5111579,36.0418421" id="Fill-12"></path>
                <path d="M7.56631579,24.4405263 C6.76894737,24.4405263 6.12157895,25.0894737 6.12157895,25.8852632 C6.12157895,26.6810526 6.76894737,27.33 7.56631579,27.33 C8.36210526,27.33 9.00947368,26.6810526 9.00947368,25.8852632 C9.00947368,25.0894737 8.36210526,24.4405263 7.56631579,24.4405263 M7.56631579,29.0984211 C5.79473684,29.0984211 4.35473684,27.6568421 4.35473684,25.8852632 C4.35473684,24.1136842 5.79473684,22.6721053 7.56631579,22.6721053 C9.33789474,22.6721053 10.7778947,24.1136842 10.7778947,25.8852632 C10.7778947,27.6568421 9.33789474,29.0984211 7.56631579,29.0984211" id="Fill-14"></path>
                <path d="M7.56631579,31.3839474 C6.76894737,31.3839474 6.12157895,32.0313158 6.12157895,32.8286842 C6.12157895,33.6244737 6.76894737,34.275 7.56631579,34.275 C8.36210526,34.275 9.00947368,33.6244737 9.00947368,32.8286842 C9.00947368,32.0313158 8.36210526,31.3839474 7.56631579,31.3839474 M7.56631579,36.0418421 C5.79473684,36.0418421 4.35473684,34.6002632 4.35473684,32.8286842 C4.35473684,31.0571053 5.79473684,29.6155263 7.56631579,29.6155263 C9.33789474,29.6155263 10.7778947,31.0571053 10.7778947,32.8286842 C10.7778947,34.6002632 9.33789474,36.0418421 7.56631579,36.0418421" id="Fill-16"></path>
                <path d="M21.4545789,24.4405263 C20.6572105,24.4405263 20.0098421,25.0894737 20.0098421,25.8852632 C20.0098421,26.6810526 20.6572105,27.33 21.4545789,27.33 C22.2503684,27.33 22.8977368,26.6810526 22.8977368,25.8852632 C22.8977368,25.0894737 22.2503684,24.4405263 21.4545789,24.4405263 M21.4545789,29.0984211 C19.683,29.0984211 18.243,27.6568421 18.243,25.8852632 C18.243,24.1136842 19.683,22.6721053 21.4545789,22.6721053 C23.2261579,22.6721053 24.6661579,24.1136842 24.6661579,25.8852632 C24.6661579,27.6568421 23.2261579,29.0984211 21.4545789,29.0984211" id="Fill-18"></path>
                <path d="M21.4545789,31.3839474 C20.6572105,31.3839474 20.0098421,32.0313158 20.0098421,32.8286842 C20.0098421,33.6244737 20.6572105,34.275 21.4545789,34.275 C22.2503684,34.275 22.8977368,33.6244737 22.8977368,32.8286842 C22.8977368,32.0313158 22.2503684,31.3839474 21.4545789,31.3839474 M21.4545789,36.0418421 C19.683,36.0418421 18.243,34.6002632 18.243,32.8286842 C18.243,31.0571053 19.683,29.6155263 21.4545789,29.6155263 C23.2261579,29.6155263 24.6661579,31.0571053 24.6661579,32.8286842 C24.6661579,34.6002632 23.2261579,36.0418421 21.4545789,36.0418421" id="Fill-20"></path>
                <path d="M25.4374737,5.05057895 C25.4722105,5.07268421 25.5053684,5.09952632 25.5337895,5.12952632 L25.5337895,5.05057895 L25.4374737,5.05057895 Z M3.51221053,5.10426316 L3.43168421,5.10426316 L3.43168421,5.20057895 C3.45536842,5.16426316 3.48221053,5.13268421 3.51221053,5.10426316 L3.51221053,5.10426316 Z M4.308,11.3237368 L24.7111579,11.3237368 L24.7111579,5.92531579 L4.308,5.92531579 L4.308,11.3237368 Z M25.5337895,12.1195263 C25.5243158,12.1274211 25.5164211,12.1368947 25.5069474,12.1447895 L25.5337895,12.1195263 Z M3.48852632,12.1195263 L3.48852632,12.2000526 L3.58484211,12.2000526 C3.54852632,12.1779474 3.51536842,12.1511053 3.48852632,12.1195263 L3.48852632,12.1195263 Z M25.5874737,13.0921579 L3.43168421,13.0921579 C2.94063158,13.0921579 2.54115789,12.6911053 2.54115789,12.2000526 L2.54115789,5.05057895 C2.54115789,4.56584211 2.95010526,4.15689474 3.43168421,4.15689474 L25.5874737,4.15689474 C26.0785263,4.15689474 26.4795789,4.55794737 26.4795789,5.05057895 L26.4795789,12.2000526 C26.4795789,12.6911053 26.0785263,13.0921579 25.5874737,13.0921579 L25.5874737,13.0921579 Z" id="Fill-22"></path>
            </g>
        </g>
    </g>
</svg>