<?xml version="1.0" encoding="UTF-8" standalone="no"?>
<svg width="15px" height="28px" viewBox="0 0 15 28" version="1.1" xmlns="http://www.w3.org/2000/svg" xmlns:xlink="http://www.w3.org/1999/xlink">
    <!-- Generator: Sketch 46.2 (44496) - http://www.bohemiancoding.com/sketch -->
    <title>Page 1</title>
    <desc>Created with Sketch.</desc>
    <defs>
        <polygon id="path-1" points="14.9593333 14.799538 14.9593333 0.166304348 0 0.166304348 0 14.799538 14.9593333 14.799538"></polygon>
        <polygon id="path-3" points="0.000316666667 15.7342657 14.9586917 15.7342657 14.9586917 0.0430944056 0.000316666667 0.0430944056"></polygon>
    </defs>
    <g id="OP-7---Final" stroke="none" stroke-width="1" fill="none" fill-rule="evenodd">
        <g id="Desktop-08" transform="translate(-965.000000, -1138.000000)">
            <g id="Page-1" transform="translate(972.500000, 1151.977273) scale(1, -1) translate(-972.500000, -1151.977273) translate(965.000000, 1138.000000)">
                <g id="Group-3">
                    <mask id="mask-2" fill="white">
                        <use xlink:href="#path-1"></use>
                    </mask>
                    <g id="Clip-2"></g>
                    <path d="M13.9559667,14.5141304 C13.5669667,14.8946739 12.9306333,14.8946739 12.5423,14.5141304 L0.291633333,2.53108696 C-0.0973666667,2.15054348 -0.0973666667,1.52804348 0.291633333,1.14782609 L1.00296667,0.451630435 C1.39196667,0.0710869565 2.0283,0.0710869565 2.4173,0.451630435 L14.6679667,12.4346739 C15.0566333,12.8152174 15.0569667,13.4373913 14.6679667,13.8179348 L13.9559667,14.5141304 Z" id="Fill-1" fill="#FFFFFF" mask="url(#mask-2)"></path>
                </g>
                <g id="Group-6" transform="translate(0.000000, 11.590909)">
                    <mask id="mask-4" fill="white">
                        <use xlink:href="#path-3"></use>
                    </mask>
                    <g id="Clip-5"></g>
                    <path d="M0.292066667,14.681993 C-0.0969333333,14.273951 -0.0969333333,13.6064685 0.292066667,13.1987762 L12.5414,0.349125874 C12.9304,-0.0589160839 13.5667333,-0.0589160839 13.9554,0.349125874 L14.6670667,1.09562937 C15.0557333,1.50367133 15.0560667,2.17115385 14.6670667,2.57884615 L2.4174,15.4284965 C2.0284,15.8361888 1.39206667,15.8365385 1.0034,15.4284965 L0.292066667,14.681993 Z" id="Fill-4" fill="#FFFFFF" mask="url(#mask-4)"></path>
                </g>
            </g>
        </g>
    </g>
</svg>