<?xml version="1.0" encoding="UTF-8" standalone="no"?>
<svg width="17px" height="20px" viewBox="0 0 17 20" version="1.1" xmlns="http://www.w3.org/2000/svg" xmlns:xlink="http://www.w3.org/1999/xlink">
    <!-- Generator: Sketch 46.2 (44496) - http://www.bohemiancoding.com/sketch -->
    <title>Page 1</title>
    <desc>Created with Sketch.</desc>
    <defs></defs>
    <g id="OP-7---Final" stroke="none" stroke-width="1" fill="none" fill-rule="evenodd" stroke-linecap="round" stroke-linejoin="round">
        <g id="Desktop-08" transform="translate(-1062.000000, -12.000000)" stroke="#000000">
            <path d="M1077.8913,27.9193493 L1073.55449,26.2192691 C1073.46101,26.1816932 1073.35836,26.1936075 1073.27405,26.2504296 L1070.95351,27.811204 C1070.53376,27.7131401 1068.87125,27.1714973 1067.09969,24.5311032 C1065.33729,21.9053729 1065.44818,20.1328904 1065.5105,19.6984763 L1067.83379,18.1413679 C1067.91536,18.0872952 1067.96485,17.9928972 1067.9676,17.8948333 L1068.03175,13.2381716 C1068.0345,13.0805361 1067.91169,12.9448963 1067.75222,12.932982 C1067.75222,12.932982 1067.5341,12.9174018 1067.20966,12.9174018 C1066.39583,12.9174018 1065.27863,13.0145492 1064.5931,13.4746248 C1064.02396,13.8558827 1063.51073,14.9483331 1063.22387,16.3982129 C1062.98375,17.6180548 1062.40453,21.9072059 1065.07792,25.8856685 C1067.76322,29.8934586 1072.3594,31.3497537 1074.79266,31.3497537 C1075.28298,31.3497537 1075.95752,31.2929316 1076.37268,31.0124871 C1077.40373,30.3205407 1078.04344,28.3775919 1078.06818,28.2969412 C1078.11767,28.1448047 1078.0416,27.9789208 1077.8913,27.9193493" id="Page-1"></path>
        </g>
    </g>
</svg>