<?xml version="1.0" encoding="UTF-8" standalone="no"?>
<svg width="29px" height="38px" viewBox="0 0 29 38" version="1.1" xmlns="http://www.w3.org/2000/svg" xmlns:xlink="http://www.w3.org/1999/xlink">
    <!-- Generator: Sketch 46.2 (44496) - http://www.bohemiancoding.com/sketch -->
    <title>Page 1</title>
    <desc>Created with Sketch.</desc>
    <defs></defs>
    <g id="OP-7---Final" stroke="none" stroke-width="1" fill="none" fill-rule="evenodd">
        <g id="Desktop-08" transform="translate(-486.000000, -527.000000)" fill="#FFFFFF">
            <g id="Page-1" transform="translate(486.000000, 527.000000)">
                <g id="Group-3">
                    <path d="M2.04358421,1.790864 C1.8589,1.790864 1.70779474,1.941344 1.70779474,2.125264 L1.70779474,35.965024 C1.70779474,36.148944 1.8589,36.297904 2.04358421,36.297904 L26.0097947,36.297904 C26.1944789,36.297904 26.3455842,36.148944 26.3455842,35.965024 L26.3455842,2.125264 C26.3455842,1.941344 26.1944789,1.790864 26.0097947,1.790864 L2.04358421,1.790864 Z M26.0097947,38.000304 L2.04358421,38.000304 C0.917163158,38.000304 -0.000152631579,37.086784 -0.000152631579,35.965024 L-0.000152631579,2.125264 C-0.000152631579,1.001984 0.917163158,0.088464 2.04358421,0.088464 L26.0097947,0.088464 C27.1362158,0.088464 28.0535316,1.001984 28.0535316,2.125264 L28.0535316,35.965024 C28.0535316,37.086784 27.1362158,38.000304 26.0097947,38.000304 L26.0097947,38.000304 Z" id="Fill-1"></path>
                </g>
                <path d="M7,15.6515114 C6.25516224,15.6515114 5.65044248,16.2560826 5.65044248,17.0007373 C5.65044248,17.7439174 6.25516224,18.3499631 7,18.3499631 C7.74483776,18.3499631 8.34955752,17.7439174 8.34955752,17.0007373 C8.34955752,16.2560826 7.74483776,15.6515114 7,15.6515114 M7,20 C5.34513274,20 4,18.6551978 4,17.0007373 C4,15.3462767 5.34513274,14 7,14 C8.65486726,14 10,15.3462767 10,17.0007373 C10,18.6551978 8.65486726,20 7,20" id="Fill-4"></path>
                <path d="M14.0014749,15.6515114 C13.2566372,15.6515114 12.6504425,16.2560826 12.6504425,17.0007373 C12.6504425,17.7439174 13.2566372,18.3499631 14.0014749,18.3499631 C14.7463127,18.3499631 15.3510324,17.7439174 15.3510324,17.0007373 C15.3510324,16.2560826 14.7463127,15.6515114 14.0014749,15.6515114 M14.0014749,20 C12.3466077,20 11,18.6551978 11,17.0007373 C11,15.3462767 12.3466077,14 14.0014749,14 C15.6548673,14 17,15.3462767 17,17.0007373 C17,18.6551978 15.6548673,20 14.0014749,20" id="Fill-6"></path>
                <path d="M20.9992627,15.6515114 C20.2560826,15.6515114 19.6515114,16.2560826 19.6515114,17.0007373 C19.6515114,17.7439174 20.2560826,18.3499631 20.9992627,18.3499631 C21.7439174,18.3499631 22.3499631,17.7439174 22.3499631,17.0007373 C22.3499631,16.2560826 21.7439174,15.6515114 20.9992627,15.6515114 M20.9992627,20 C19.3448022,20 18,18.6551978 18,17.0007373 C18,15.3462767 19.3448022,14 20.9992627,14 C22.6537233,14 24,15.3462767 24,17.0007373 C24,18.6551978 22.6537233,20 20.9992627,20" id="Fill-8"></path>
                <path d="M14.0014749,22.6511057 C13.2566372,22.6511057 12.6519174,23.2570025 12.6519174,24 C12.6519174,24.7429975 13.2566372,25.3488943 14.0014749,25.3488943 C14.7463127,25.3488943 15.3510324,24.7429975 15.3510324,24 C15.3510324,23.2570025 14.7463127,22.6511057 14.0014749,22.6511057 M14.0014749,27 C12.3466077,27 11,25.6540541 11,24 C11,22.3459459 12.3466077,21 14.0014749,21 C15.6548673,21 17,22.3459459 17,24 C17,25.6540541 15.6548673,27 14.0014749,27" id="Fill-10"></path>
                <path d="M14.0014749,29.6511057 C13.2566372,29.6511057 12.6519174,30.2555283 12.6519174,31 C12.6519174,31.7429975 13.2566372,32.3503686 14.0014749,32.3503686 C14.7463127,32.3503686 15.3510324,31.7429975 15.3510324,31 C15.3510324,30.2555283 14.7463127,29.6511057 14.0014749,29.6511057 M14.0014749,34 C12.3466077,34 11,32.6540541 11,31 C11,29.3459459 12.3466077,28 14.0014749,28 C15.6548673,28 17,29.3459459 17,31 C17,32.6540541 15.6548673,34 14.0014749,34" id="Fill-12"></path>
                <path d="M7,22.6511057 C6.25516224,22.6511057 5.65044248,23.2570025 5.65044248,24 C5.65044248,24.7429975 6.25516224,25.3488943 7,25.3488943 C7.74336283,25.3488943 8.3480826,24.7429975 8.3480826,24 C8.3480826,23.2570025 7.74336283,22.6511057 7,22.6511057 M7,27 C5.34513274,27 4,25.6540541 4,24 C4,22.3459459 5.34513274,21 7,21 C8.65486726,21 10,22.3459459 10,24 C10,25.6540541 8.65486726,27 7,27" id="Fill-14"></path>
                <path d="M7,29.6511057 C6.25516224,29.6511057 5.65044248,30.2555283 5.65044248,31 C5.65044248,31.7429975 6.25516224,32.3503686 7,32.3503686 C7.74336283,32.3503686 8.3480826,31.7429975 8.3480826,31 C8.3480826,30.2555283 7.74336283,29.6511057 7,29.6511057 M7,34 C5.34513274,34 4,32.6540541 4,31 C4,29.3459459 5.34513274,28 7,28 C8.65486726,28 10,29.3459459 10,31 C10,32.6540541 8.65486726,34 7,34" id="Fill-16"></path>
                <path d="M21,22.6511057 C20.2551622,22.6511057 19.6504425,23.2570025 19.6504425,24 C19.6504425,24.7429975 20.2551622,25.3488943 21,25.3488943 C21.7433628,25.3488943 22.3480826,24.7429975 22.3480826,24 C22.3480826,23.2570025 21.7433628,22.6511057 21,22.6511057 M21,27 C19.3451327,27 18,25.6540541 18,24 C18,22.3459459 19.3451327,21 21,21 C22.6548673,21 24,22.3459459 24,24 C24,25.6540541 22.6548673,27 21,27" id="Fill-18"></path>
                <path d="M21,29.6511057 C20.2551622,29.6511057 19.6504425,30.2555283 19.6504425,31 C19.6504425,31.7429975 20.2551622,32.3503686 21,32.3503686 C21.7433628,32.3503686 22.3480826,31.7429975 22.3480826,31 C22.3480826,30.2555283 21.7433628,29.6511057 21,29.6511057 M21,34 C19.3451327,34 18,32.6540541 18,31 C18,29.3459459 19.3451327,28 21,28 C22.6548673,28 24,29.3459459 24,31 C24,32.6540541 22.6548673,34 21,34" id="Fill-20"></path>
                <path d="M23.9987468,3.90015904 C24.0321219,3.92242446 24.0639799,3.94946104 24.0912869,3.97967839 L24.0912869,3.90015904 L23.9987468,3.90015904 Z M2.93298595,3.9542322 L2.85561638,3.9542322 L2.85561638,4.0512458 C2.87837214,4.0146669 2.90416199,3.98285916 2.93298595,3.9542322 L2.93298595,3.9542322 Z M3.69757932,10.2187666 L23.3009036,10.2187666 L23.3009036,4.78123343 L3.69757932,4.78123343 L3.69757932,10.2187666 Z M24.0912869,11.0203216 C24.0821846,11.0282735 24.0745993,11.0378159 24.065497,11.0457678 L24.0912869,11.0203216 Z M2.9102302,11.0203216 L2.9102302,11.1014313 L3.00277027,11.1014313 C2.96787811,11.0791659 2.93602005,11.0521294 2.9102302,11.0203216 L2.9102302,11.0203216 Z M24.1428666,12 L2.85561638,12 C2.38381373,12 2,11.5960417 2,11.1014313 L2,3.90015904 C2,3.41191023 2.39291603,3 2.85561638,3 L24.1428666,3 C24.6146692,3 25,3.4039583 25,3.90015904 L25,11.1014313 C25,11.5960417 24.6146692,12 24.1428666,12 L24.1428666,12 Z" id="Fill-22"></path>
            </g>
        </g>
    </g>
</svg>