<?xml version="1.0" encoding="UTF-8" standalone="no"?>
<svg width="9px" height="9px" viewBox="0 0 9 9" version="1.1" xmlns="http://www.w3.org/2000/svg" xmlns:xlink="http://www.w3.org/1999/xlink">
    <!-- Generator: Sketch 46.2 (44496) - http://www.bohemiancoding.com/sketch -->
    <title>Page 1</title>
    <desc>Created with Sketch.</desc>
    <defs></defs>
    <g id="OP-7---Final" stroke="none" stroke-width="1" fill="none" fill-rule="evenodd">
        <g id="Mobile-07" transform="translate(-290.000000, -2593.000000)" fill="#FFFFFF">
            <g id="footer" transform="translate(0.000000, 2540.000000)">
                <g id="Page-1" transform="translate(290.000000, 53.000000)">
                    <path d="M8.2935959,3.92879613 L4.80159608,3.92879613 L4.80159608,0.436203643 C4.80159608,0.195580438 4.60601564,-1.77635684e-15 4.36479977,-1.77635684e-15 C4.12417657,-1.77635684e-15 3.92859613,0.195580438 3.92859613,0.436203643 L3.92859613,3.92879613 L0.436003643,3.92879613 C0.195380438,3.92879613 -0.0002,4.12437657 -0.0002,4.36499977 C-0.0002,4.60621564 0.195380438,4.80179608 0.436003643,4.80179608 L3.92859613,4.80179608 L3.92859613,8.2937959 C3.92859613,8.53501177 4.12417657,8.73059221 4.36479977,8.73059221 C4.60601564,8.73059221 4.80159608,8.53501177 4.80159608,8.2937959 L4.80159608,4.80179608 L8.2935959,4.80179608 C8.53481177,4.80179608 8.72979954,4.60621564 8.72979954,4.36499977 C8.72979954,4.12437657 8.53481177,3.92879613 8.2935959,3.92879613" id="Fill-1"></path>
                </g>
            </g>
        </g>
    </g>
</svg>