<?xml version="1.0" encoding="utf-8"?>
<!-- Generator: Adobe Illustrator 21.0.0, SVG Export Plug-In . SVG Version: 6.00 Build 0)  -->
<svg version="1.1" id="Layer_1" xmlns="http://www.w3.org/2000/svg" xmlns:xlink="http://www.w3.org/1999/xlink" x="0px" y="0px"
	 viewBox="0 0 30 30" style="enable-background:new 0 0 30 30;" xml:space="preserve">
<style type="text/css">
	.st0{fill:#FFFFFF;}
	.st1{fill:#0079C8;}
</style>
<g>
	<circle class="st0" cx="15" cy="15" r="15"/>
	<g>
		<path class="st1" d="M24,16.2v6.2h-3.6v-5.8c0-1.4-0.5-2.4-1.8-2.4c-1,0-1.6,0.7-1.8,1.3c-0.1,0.2-0.1,0.6-0.1,0.9v6H13
			c0,0,0-9.8,0-10.8h3.6v1.5c0,0,0,0,0,0h0v0c0.5-0.7,1.3-1.8,3.2-1.8C22.2,11.4,24,12.9,24,16.2L24,16.2z M9.3,6.4
			c-1.2,0-2,0.8-2,1.9c0,1,0.8,1.9,2,1.9h0c1.3,0,2-0.8,2-1.9C11.2,7.2,10.5,6.4,9.3,6.4L9.3,6.4z M7.5,22.4H11V11.6H7.5V22.4z"/>
	</g>
</g>
</svg>
