<?xml version="1.0" encoding="UTF-8" standalone="no"?>
<svg width="19px" height="24px" viewBox="0 0 19 24" version="1.1" xmlns="http://www.w3.org/2000/svg" xmlns:xlink="http://www.w3.org/1999/xlink">
    <!-- Generator: Sketch 46.2 (44496) - http://www.bohemiancoding.com/sketch -->
    <title>Page 1</title>
    <desc>Created with Sketch.</desc>
    <defs></defs>
    <g id="OP-7---Final" stroke="none" stroke-width="1" fill="none" fill-rule="evenodd">
        <g id="Mobile-07" transform="translate(-27.000000, -329.000000)" fill="#0079C8">
            <g id="btns-secundarios" transform="translate(-4.000000, 318.000000)">
                <g id="presupuestos" transform="translate(31.000000, 0.000000)">
                    <path d="M8.44444444,31.4074074 L10.5555556,31.4074074 L10.5555556,29.2962963 L8.44444444,29.2962963 L8.44444444,31.4074074 Z M10.9029536,32.1111111 L8.09704641,32.1111111 C7.90036568,32.1111111 7.74074074,31.9494397 7.74074074,31.7502374 L7.74074074,28.9534663 C7.74074074,28.754264 7.90036568,28.5925926 8.09704641,28.5925926 L10.9029536,28.5925926 C11.0999906,28.5925926 11.2592593,28.754264 11.2592593,28.9534663 L11.2592593,31.7502374 C11.2592593,31.9494397 11.0999906,32.1111111 10.9029536,32.1111111 L10.9029536,32.1111111 Z M3.51851852,31.4074074 L5.62962963,31.4074074 L5.62962963,29.2962963 L3.51851852,29.2962963 L3.51851852,31.4074074 Z M5.97702766,32.1111111 L3.17112049,32.1111111 C2.97443976,32.1111111 2.81481481,31.9494397 2.81481481,31.7502374 L2.81481481,28.9534663 C2.81481481,28.754264 2.97443976,28.5925926 3.17112049,28.5925926 L5.97702766,28.5925926 C6.1740647,28.5925926 6.33333333,28.754264 6.33333333,28.9534663 L6.33333333,31.7502374 C6.33333333,31.9494397 6.1740647,32.1111111 5.97702766,32.1111111 L5.97702766,32.1111111 Z M13.3703704,30.7037037 L15.4814815,30.7037037 L15.4814815,24.3703704 L13.3703704,24.3703704 L13.3703704,30.7037037 Z M15.8288795,32.1111111 L13.0229723,32.1111111 C12.8262916,32.1111111 12.6666667,31.937175 12.6666667,31.7228608 L12.6666667,24.054917 C12.6666667,23.8406028 12.8262916,23.6666667 13.0229723,23.6666667 L15.8288795,23.6666667 C16.0259165,23.6666667 16.1851852,23.8406028 16.1851852,24.054917 L16.1851852,31.7228608 C16.1851852,31.937175 16.0259165,32.1111111 15.8288795,32.1111111 L15.8288795,32.1111111 Z M8.44444444,26.4814815 L10.5555556,26.4814815 L10.5555556,24.3703704 L8.44444444,24.3703704 L8.44444444,26.4814815 Z M10.9029536,27.1851852 L8.09704641,27.1851852 C7.90036568,27.1851852 7.74074074,27.0235138 7.74074074,26.8243115 L7.74074074,24.0275404 C7.74074074,23.8283381 7.90036568,23.6666667 8.09704641,23.6666667 L10.9029536,23.6666667 C11.0999906,23.6666667 11.2592593,23.8283381 11.2592593,24.0275404 L11.2592593,26.8243115 C11.2592593,27.0235138 11.0999906,27.1851852 10.9029536,27.1851852 L10.9029536,27.1851852 Z M3.51851852,26.4814815 L5.62962963,26.4814815 L5.62962963,24.3703704 L3.51851852,24.3703704 L3.51851852,26.4814815 Z M5.97702766,27.1851852 L3.17112049,27.1851852 C2.97443976,27.1851852 2.81481481,27.0235138 2.81481481,26.8243115 L2.81481481,24.0275404 C2.81481481,23.8283381 2.97443976,23.6666667 3.17112049,23.6666667 L5.97702766,23.6666667 C6.1740647,23.6666667 6.33333333,23.8283381 6.33333333,24.0275404 L6.33333333,26.8243115 C6.33333333,27.0235138 6.1740647,27.1851852 5.97702766,27.1851852 L5.97702766,27.1851852 Z M13.3703704,22.2592593 L15.4814815,22.2592593 L15.4814815,20.1481481 L13.3703704,20.1481481 L13.3703704,22.2592593 Z M15.8288795,22.962963 L13.0229723,22.962963 C12.8262916,22.962963 12.6666667,22.8012915 12.6666667,22.6020893 L12.6666667,19.8053181 C12.6666667,19.6061159 12.8262916,19.4444444 13.0229723,19.4444444 L15.8288795,19.4444444 C16.0259165,19.4444444 16.1851852,19.6061159 16.1851852,19.8053181 L16.1851852,22.6020893 C16.1851852,22.8012915 16.0259165,22.962963 15.8288795,22.962963 L15.8288795,22.962963 Z M8.44444444,22.2592593 L10.5555556,22.2592593 L10.5555556,20.1481481 L8.44444444,20.1481481 L8.44444444,22.2592593 Z M10.9029536,22.962963 L8.09704641,22.962963 C7.90036568,22.962963 7.74074074,22.8012915 7.74074074,22.6020893 L7.74074074,19.8053181 C7.74074074,19.6061159 7.90036568,19.4444444 8.09704641,19.4444444 L10.9029536,19.4444444 C11.0999906,19.4444444 11.2592593,19.6061159 11.2592593,19.8053181 L11.2592593,22.6020893 C11.2592593,22.8012915 11.0999906,22.962963 10.9029536,22.962963 L10.9029536,22.962963 Z M3.51851852,22.2592593 L5.62962963,22.2592593 L5.62962963,20.1481481 L3.51851852,20.1481481 L3.51851852,22.2592593 Z M5.97702766,22.962963 L3.17112049,22.962963 C2.97443976,22.962963 2.81481481,22.8012915 2.81481481,22.6020893 L2.81481481,19.8053181 C2.81481481,19.6061159 2.97443976,19.4444444 3.17112049,19.4444444 L5.97702766,19.4444444 C6.1740647,19.4444444 6.33333333,19.6061159 6.33333333,19.8053181 L6.33333333,22.6020893 C6.33333333,22.8012915 6.1740647,22.962963 5.97702766,22.962963 L5.97702766,22.962963 Z M3.51851852,17.3333333 L15.4814815,17.3333333 L15.4814815,15.2222222 L3.51851852,15.2222222 L3.51851852,17.3333333 Z M15.8124919,18.037037 L3.18750807,18.037037 C2.98178139,18.037037 2.81481481,17.8753656 2.81481481,17.6761633 L2.81481481,14.8793922 C2.81481481,14.6801899 2.98178139,14.5185185 3.18750807,14.5185185 L15.8124919,14.5185185 C16.0185913,14.5185185 16.1851852,14.6801899 16.1851852,14.8793922 L16.1851852,17.6761633 C16.1851852,17.8753656 16.0185913,18.037037 15.8124919,18.037037 L15.8124919,18.037037 Z M17.5925926,32.904061 C17.5925926,33.2315219 17.3047792,33.5185185 16.9763863,33.5185185 L2.02398947,33.5185185 C1.69522085,33.5185185 1.40740741,33.2315219 1.40740741,32.904061 L1.40740741,13.0218649 C1.40740741,12.694404 1.69522085,12.4074074 2.02398947,12.4074074 L3.42022283,12.4074074 L15.4565359,12.4074074 L16.9763863,12.4074074 C17.3047792,12.4074074 17.5925926,12.694404 17.5925926,13.0218649 L17.5925926,32.904061 Z M16.9524345,11 L15.4374532,11 L3.43970037,11 L2.04794007,11 C0.901123596,11 0,11.8987176 0,13.0437975 L0,32.8821285 C0,34.0264606 0.900374532,34.9259259 2.04794007,34.9259259 L16.9524345,34.9259259 C18.0988764,34.9259259 19,34.0272083 19,32.8821285 L19,13.0437975 C19,11.8998391 18.0588015,11 16.9524345,11 L16.9524345,11 Z" id="Page-1"></path>
                </g>
            </g>
        </g>
    </g>
</svg>