<?xml version="1.0" encoding="UTF-8" standalone="no"?>
<svg width="12px" height="21px" viewBox="0 0 12 21" version="1.1" xmlns="http://www.w3.org/2000/svg" xmlns:xlink="http://www.w3.org/1999/xlink">
    <!-- Generator: Sketch 46.2 (44496) - http://www.bohemiancoding.com/sketch -->
    <title>Page 1</title>
    <desc>Created with Sketch.</desc>
    <defs></defs>
    <g id="OP-7---Final" stroke="none" stroke-width="1" fill="none" fill-rule="evenodd" stroke-linecap="round" stroke-linejoin="round">
        <g id="Desktop-08" transform="translate(-790.000000, -12.000000)" stroke-width="1.2" stroke="#000000">
            <g id="HEADER">
                <path d="M796.102019,12.847655 C793.404935,12.847655 791.169362,14.9604415 791.016936,17.642283 C791.005928,17.7354319 791,17.8404361 791,17.9479808 C791,18.0622999 791.007621,18.1893211 791.020323,18.3197296 C791.03726,18.5712316 791.071132,18.8142656 791.118553,19.0344357 C791.609702,21.7001879 795.569377,31.9922948 796.102019,31.9922948 C796.196862,31.9922948 796.280696,31.9414863 796.317955,31.8559587 C796.481389,31.4952184 800.352997,23.0008853 801.082945,19.0412102 C801.133754,18.812572 801.166779,18.5686912 801.183715,18.3239636 C801.196418,18.1893211 801.203192,18.0622999 801.203192,17.9479808 C801.203192,17.8404361 801.198111,17.7354319 801.187103,17.6524447 C801.032984,14.9604415 798.799104,12.847655 796.102019,12.847655 M796.102019,19.7872482 C794.862292,19.7872482 793.857978,18.7846273 793.857978,17.5449001 C793.857978,16.3060197 794.862292,15.302552 796.102019,15.302552 C797.339206,15.302552 798.343521,16.3060197 798.343521,17.5449001 C798.343521,18.7846273 797.339206,19.7872482 796.102019,19.7872482" id="Page-1"></path>
            </g>
        </g>
    </g>
</svg>