<?xml version="1.0" encoding="UTF-8" standalone="no"?>
<svg width="22px" height="25px" viewBox="0 0 22 25" version="1.1" xmlns="http://www.w3.org/2000/svg" xmlns:xlink="http://www.w3.org/1999/xlink">
    <!-- Generator: Sketch 46.2 (44496) - http://www.bohemiancoding.com/sketch -->
    <title>Fill 1</title>
    <desc>Created with Sketch.</desc>
    <defs></defs>
    <g id="OP-7---Final" stroke="none" stroke-width="1" fill="none" fill-rule="evenodd">
        <g id="Mobile-07" transform="translate(-23.000000, -430.000000)" fill="#0079C8">
            <g id="btns-secundarios" transform="translate(-4.000000, 318.000000)">
                <g id="buscador-de-médicos" transform="translate(27.000000, 101.000000)">
                    <path d="M11.1850157,31.4436922 L10.6695771,29.3342081 C10.5296158,28.7251457 10.0145737,28.1148922 9.54631769,27.8810344 L7.29940228,26.9436183 L6.92471813,25.3963456 C6.73717781,25.4892535 6.59681994,25.5837494 6.40927962,25.6770543 L6.78396377,27.177476 L5.37998857,29.3342081 C5.05248687,29.8027177 4.91252549,30.6468289 5.05248687,31.2558914 L5.56752888,33.3653755 C5.70828325,34.0220829 6.31650069,34.4433445 6.87872515,34.2567347 L7.4869426,34.0220829 L7.53412504,34.3027916 C7.580911,34.4905925 7.72166536,34.5838974 7.86162674,34.5374434 C8.00198461,34.4913866 8.09634951,34.3027916 8.04916706,34.1161819 L7.76845132,32.9909649 C7.72166536,32.8035611 7.580911,32.7102562 7.44094962,32.7563131 C7.30019526,32.8023699 7.20622685,32.9909649 7.2534093,33.1779717 L7.30019526,33.4126235 L6.69197782,33.6476723 C6.41165857,33.7409772 6.1769358,33.5539704 6.08376038,33.2260137 L5.56871836,31.1165296 C5.47554294,30.7409279 5.56871836,30.1318655 5.80344113,29.8039088 L7.20741633,27.6471767 L9.36075982,28.538536 C9.68865801,28.6786918 10.0165562,29.1475984 10.1097316,29.5228031 L10.6247736,31.6322872 C10.7179491,31.9606409 10.5315982,32.2885976 10.2972719,32.3819025 L9.87580184,32.5224553 L9.82901588,32.2874065 C9.78183344,32.1000026 9.64147557,32.0066978 9.50111769,32.0527546 C9.36075982,32.0988115 9.26679142,32.2874065 9.31357738,32.4744132 L9.59429312,33.5992332 C9.64147557,33.7870341 9.78183344,33.8803389 9.92179482,33.8342821 C10.0625492,33.7882252 10.1565176,33.5992332 10.1097316,33.4126235 L10.0625492,33.1315177 L10.4832263,32.9909649 C10.9982683,32.8508091 11.3261665,32.1472506 11.1858086,31.4436922 L11.1850157,31.4436922 Z M21.4255894,35.3783784 C21.5929086,35.3589233 21.7507121,35.2715741 21.8601437,35.1377709 C21.9644209,35.0107175 22.0131893,34.8562682 21.9969331,34.6962602 C21.9469752,33.9954811 21.4787192,28.4698477 21.1167228,27.2469584 C20.8312491,26.2960428 18.7139863,24.9500704 15.3093167,23.5548649 C15.229622,23.5227045 15.1483413,23.5068228 15.0678536,23.5068228 C14.824408,23.5068228 14.5980116,23.660478 14.4957169,23.8911594 C14.3474292,24.2619967 14.55638,24.5836007 14.8295624,24.7054926 C16.9472217,25.5368985 19.55653,26.9213839 19.914958,27.5792825 L19.9276458,27.6035021 L19.9347826,27.6297068 C20.1798141,28.5139194 20.5552913,32.5530276 20.7380737,34.7959178 C20.7717754,35.1278449 21.0326666,35.3783784 21.3451017,35.3783784 L21.4255894,35.3783784 Z M0.604649021,35.3783784 C0.893294586,35.3783784 1.18828401,35.1044194 1.25806645,34.8002852 C1.44164186,32.5502483 1.81711899,28.5075667 2.06135755,27.6293098 L2.06889088,27.603105 L2.08197509,27.5792825 C2.42414696,26.9519562 4.93393601,25.6262329 7.15666546,24.70986 C7.30574614,24.643157 7.42984787,24.5153094 7.49685487,24.3584779 C7.56386188,24.2024404 7.56624083,24.0392561 7.50438821,23.8994973 C7.40130051,23.6680218 7.15666546,23.5068228 6.90885848,23.5068228 C6.83312867,23.5068228 6.76136377,23.5215133 6.68801291,23.5540708 C3.28136085,24.9496734 1.16489103,26.2952487 0.880210378,27.2461643 C0.517817456,28.4698477 0.0495613951,33.9954811 0,34.6791874 C0,35.0448631 0.250185923,35.346218 0.557863064,35.3783784 L0.604649021,35.3783784 Z M15.6796395,29.9432705 C15.0246361,30.3188723 14.2284818,30.1310714 13.8534012,29.474761 C13.478717,28.8184506 13.6662573,28.0215873 14.3216572,27.6463826 C14.9770571,27.2707809 15.7728149,27.4581847 16.1478955,28.1148922 C16.5685726,28.7239546 16.3350393,29.5680659 15.6796395,29.9432705 L15.6796395,29.9432705 Z M16.7573024,27.7392904 C16.5225797,27.3640857 16.2418639,27.08298 15.8671798,26.9428242 C15.9742324,26.7280245 16.1070569,26.2654706 16.0182429,25.7044502 L15.1546852,25.2855709 C15.1895764,25.3379805 15.2244676,25.389993 15.2585658,25.4424025 C15.4932886,26.0987129 15.2585658,26.7077753 15.2117799,26.8022713 C14.7911028,26.7550233 14.3688397,26.8491223 13.9941555,27.08298 C13.0108575,27.6463826 12.6829593,28.9117554 13.2911767,29.8960225 C13.8066152,30.8334387 15.070629,31.1153385 16.0535306,30.552333 L16.0543236,30.552333 C17.0376217,29.9893274 17.3655199,28.7239546 16.7573024,27.7392904 L16.7573024,27.7392904 Z M15.0246361,28.1617431 C14.6884116,28.1617431 14.4156256,28.434511 14.4156256,28.7712026 C14.4156256,29.1074971 14.6884116,29.380265 15.0246361,29.380265 C15.3600676,29.380265 15.6328535,29.1074971 15.6328535,28.7712026 C15.6328535,28.434511 15.3600676,28.1617431 15.0246361,28.1617431 L15.0246361,28.1617431 Z M6.92352866,15.5981433 L6.92352866,16.9580121 C6.92352866,19.6297077 9.31040545,21.8332908 10.9031104,21.8332908 C12.4958154,21.8332908 14.8830887,19.7710547 14.8830887,16.9580121 L14.8830887,15.5981433 C14.8830887,14.9418329 14.7427308,14.3788274 14.5080081,13.9099208 C13.8530047,14.8945849 12.4014505,16.1599577 9.07726864,16.7229633 L8.93691077,16.7229633 C8.56222662,16.7229633 8.18714599,16.4410635 8.14115301,16.0198019 C8.09516004,15.5981433 8.37587578,15.1756906 8.84373535,15.0823858 C12.3082751,14.5201743 13.1512153,13.1603055 13.3387556,12.6445479 C12.7301417,12.2693433 11.8872015,12.0815424 10.9042999,12.0815424 C8.46984418,12.0815424 6.92471813,13.4414112 6.92471813,15.5981433 L6.92352866,15.5981433 Z M10.9042999,23.008138 C8.59156697,23.008138 5.79868323,20.3300898 5.79868323,17.004069 L5.79868323,15.6442002 C5.79868323,13.3326217 7.37711454,11 10.9042999,11 C14.6689835,11 16.0103131,13.3989277 16.0103131,15.6442002 L16.0103131,17.004069 C16.0103131,20.3852786 13.2654048,23.008138 10.9042999,23.008138 L10.9042999,23.008138 Z" id="Fill-1"></path>
                </g>
            </g>
        </g>
    </g>
</svg>