<?xml version="1.0" encoding="UTF-8" standalone="no"?>
<svg width="25px" height="26px" viewBox="0 0 25 26" version="1.1" xmlns="http://www.w3.org/2000/svg" xmlns:xlink="http://www.w3.org/1999/xlink">
    <!-- Generator: Sketch 46.2 (44496) - http://www.bohemiancoding.com/sketch -->
    <title>Page 1</title>
    <desc>Created with Sketch.</desc>
    <defs>
        <polygon id="path-1" points="28 29 28 0 0 0 0 29 28 29"></polygon>
    </defs>
    <g id="OP-7---Final" stroke="none" stroke-width="1" fill="none" fill-rule="evenodd">
        <g id="Desktop-08" transform="translate(-979.000000, -681.000000)">
            <g id="Page-1" transform="translate(976.000000, 681.000000)">
                <mask id="mask-2" fill="white">
                    <use xlink:href="#path-1"></use>
                </mask>
                <g id="Clip-2"></g>
                <path d="M7.84906731,16.1763917 C7.30022699,17.1083045 6.87923633,18.1236859 6.54226115,19.0987088 C7.76413861,19.0134058 9.19788121,18.0393001 10.0407758,17.2348832 C11.5165261,15.7948211 12.06354,14.3978692 11.9795245,13.4237635 C11.93843,12.914697 11.727478,12.6202639 11.1786377,12.7037324 C10.3366564,12.8734213 9.15678668,13.8897199 7.84906731,16.1763917 L7.84906731,16.1763917 Z M15.39585,23.4170606 C15.8177539,23.0786002 16.1967368,22.613561 16.3647678,22.1035772 C16.576633,21.3835462 15.9857849,21.3835462 15.6488097,21.8495026 C15.3538423,22.2732661 15.2269059,22.9511042 15.39585,23.4170606 L15.39585,23.4170606 Z M26.2292822,18.3786778 L23.995566,18.3786778 L24.8384606,21.5541523 L25.3863877,21.5541523 L26.2292822,18.3786778 Z M23.7426064,16.7267339 L26.4831551,16.7267339 L26.4831551,4.32018627 L23.7426064,4.32018627 L23.7426064,16.7267339 Z M24.5855009,2.66824243 L25.6393474,2.66824243 L25.6393474,1.27129048 L24.5855009,1.27129048 L24.5855009,2.66824243 Z M25.133428,26 C22.3517847,26 20.7080034,25.4918507 19.7792669,24.8140126 C18.5153817,25.914697 16.533712,26.4659564 15.0159539,25.4918507 C13.5822113,26.085303 10.7996548,26.3806534 9.78872928,24.8983984 C8.86090604,25.5771537 7.80705957,26 6.83722858,26 C3.97065658,25.9578071 4.09759303,22.2310732 4.51858369,20.1993932 C3.33871398,19.3518662 3.04283334,17.6577295 3.0008256,16.2185846 C2.95790464,15.1179002 4.60259918,15.1179002 4.64460693,16.1763917 C4.64460693,17.1504974 4.81263791,17.8274183 5.0665108,18.3355676 C5.40348598,17.3201863 5.8673976,16.2607775 6.41623792,15.329782 C8.0180115,12.5771537 9.61978509,11.3489734 10.8407493,11.0948988 C12.3594206,10.7986312 13.4141803,11.7727369 13.5822113,13.2540746 C13.7091478,14.6088337 13.0762919,16.6001552 11.1786377,18.4199534 C9.95676026,19.6059409 7.89107506,20.8341212 6.12035728,20.7488182 C5.9523263,21.5972624 5.61535113,24.3489734 6.87923633,24.3911663 C7.80705957,24.3911663 8.77689055,23.7555211 9.40883315,23.1620687 C9.49284864,22.315459 9.82982381,21.4266563 10.2517277,20.7488182 C11.3475819,18.8859098 13.2863307,18.7171382 12.822419,20.7488182 C12.5703726,21.7651168 11.93843,22.8667184 11.0955354,23.7986312 C11.4325106,24.645241 13.2023152,24.3911663 13.8780919,24.1792846 C13.2863307,22.8245255 13.7931632,20.7919283 15.1839849,20.1140902 C16.1967368,19.6059409 17.5446375,20.0297044 17.9245337,21.1725817 C18.3035166,22.315459 17.5875585,23.5867495 16.7875849,24.3489734 C17.5875585,24.3911663 18.2195011,24.0105129 18.7674282,23.4592535 C18.5993972,22.7392225 18.8103492,21.9779158 19.2313398,21.4266563 C20.1180685,20.283779 21.7189289,20.5800466 21.3810405,22.2310732 C21.2979382,22.6548367 21.0860731,23.1207931 20.7490979,23.5867495 C21.2559305,23.9252099 22.3088637,24.2223947 24.206518,24.3067805 L24.206518,23.1620687 C23.7837009,23.1620687 23.4056312,22.9511042 23.3197893,22.528258 L22.0568173,17.7430325 C22.0138963,17.6577295 22.0138963,17.532068 22.0138963,17.4045721 L22.0138963,5.97121287 C21.2130095,6.22437028 20.9180421,6.90220842 20.9180421,7.70754251 L20.9180421,12.0680872 C20.9180421,13.1696888 19.2742608,13.1696888 19.2742608,12.0680872 L19.2742608,7.74881818 C19.2742608,6.01340577 20.2851863,4.61645382 22.0138963,4.32018627 L22.0138963,3.51485218 C22.0138963,3.04889579 22.3928792,2.71043533 22.8156963,2.71043533 L23.236687,2.71043533 L23.236687,0.636562478 C23.236687,0.297184788 23.5316544,0 23.8695428,0 L26.1452667,0 C26.4831551,0 26.7781225,0.297184788 26.7781225,0.636562478 L26.7781225,2.66824243 L27.1991132,2.66824243 C27.6630248,2.66824243 28,3.09200593 28,3.55796232 L28,17.4889579 C28,17.5733437 28,17.7008396 27.9589055,17.7852254 L26.6931938,22.528258 C26.5671706,22.9942144 26.2722032,23.1620687 25.8082916,23.1620687 L25.8082916,25.1533902 C25.9343148,25.6606223 25.6393474,26 25.133428,26 L25.133428,26 Z" id="Fill-1" fill="#0079C8" mask="url(#mask-2)"></path>
            </g>
        </g>
    </g>
</svg>