<?xml version="1.0" encoding="UTF-8" standalone="no"?>
<svg width="23px" height="40px" viewBox="0 0 23 40" version="1.1" xmlns="http://www.w3.org/2000/svg" xmlns:xlink="http://www.w3.org/1999/xlink">
    <!-- Generator: Sketch 46.2 (44496) - http://www.bohemiancoding.com/sketch -->
    <title>Page 1</title>
    <desc>Created with Sketch.</desc>
    <defs></defs>
    <g id="OP-7---Final" stroke="none" stroke-width="1" fill="none" fill-rule="evenodd" stroke-linecap="round" stroke-linejoin="round">
        <g id="Desktop-08" transform="translate(-770.000000, -526.000000)" stroke="#FFFFFF" stroke-width="2">
            <path d="M781.126946,527 C775.773531,527 771.336164,531.193648 771.033616,536.516808 C771.011766,536.701699 771,536.91012 771,537.123585 C771,537.350495 771.015127,537.602619 771.04034,537.861465 C771.073956,538.360669 771.141189,538.843064 771.235315,539.280078 C772.210191,544.571302 780.06971,565 781.126946,565 C781.315198,565 781.481599,564.899151 781.555556,564.729388 C781.879954,564.013358 789.564667,547.153043 791.013535,539.293524 C791.114384,538.839703 791.179936,538.355626 791.213553,537.869869 C791.238765,537.602619 791.252212,537.350495 791.252212,537.123585 C791.252212,536.91012 791.242127,536.701699 791.220276,536.536978 C790.914367,531.193648 786.480361,527 781.126946,527 M781.126946,540.774328 C778.666224,540.774328 776.672771,538.784236 776.672771,536.323514 C776.672771,533.864473 778.666224,531.8727 781.126946,531.8727 C783.582626,531.8727 785.576079,533.864473 785.576079,536.323514 C785.576079,538.784236 783.582626,540.774328 781.126946,540.774328" id="Page-1"></path>
        </g>
    </g>
</svg>