<?xml version="1.0" encoding="UTF-8" standalone="no"?>
<svg width="45px" height="35px" viewBox="0 0 45 35" version="1.1" xmlns="http://www.w3.org/2000/svg" xmlns:xlink="http://www.w3.org/1999/xlink">
    <!-- Generator: Sketch 46.2 (44496) - http://www.bohemiancoding.com/sketch -->
    <title>Page 1</title>
    <desc>Created with Sketch.</desc>
    <defs>
        <polygon id="path-1" points="0 16.4506749 0 0.901794239 9.63902598 0.901794239 9.63902598 16.4506749"></polygon>
        <polygon id="path-3" points="0.614049318 16.5306122 10.8673895 16.5306122 10.8673895 0.901794239 0.614049318 0.901794239"></polygon>
        <polygon id="path-5" points="14.674723 0.800816327 0.0156122449 0.800816327 0.0156122449 18.1498776 14.674723 18.1498776 14.674723 0.800816327"></polygon>
    </defs>
    <g id="OP-7---Final" stroke="none" stroke-width="1" fill="none" fill-rule="evenodd">
        <g id="Desktop-08" transform="translate(-1045.000000, -529.000000)">
            <g id="Page-1" transform="translate(1045.000000, 529.000000)">
                <path d="M18.621536,9.14939145 L18.621536,11.1911881 C18.621536,14.7630718 15.6514846,17.7400616 13.6973205,17.7400616 C11.7431564,17.7400616 8.77310498,15.0176662 8.77310498,11.1911881 L8.77310498,9.32080154 C8.77310498,8.38434791 8.92948445,7.7050094 9.241085,7.02441053 C10.0241407,8.29990323 11.8219253,10.00014 15.9642435,10.7651836 L16.1194646,10.7651836 C16.588603,10.7651836 17.0577413,10.3416998 17.1353519,9.83125069 C17.2129624,9.2350965 16.8237513,8.6389423 16.2770024,8.55449762 C11.9783048,7.78945408 10.9624174,5.91906755 10.7272691,5.23720831 C11.508008,4.72675916 12.5238953,4.47216477 13.774931,4.47216477 C16.8237513,4.47216477 18.6991465,6.25810662 18.6991465,9.14939145 L18.621536,9.14939145 Z M21.122449,11.019778 L21.122449,9.14939145 C21.122449,5.49432344 18.855526,1.83673469 13.774931,1.83673469 C8.38273551,1.83673469 6.42857143,5.57750775 6.42857143,9.14939145 L6.42857143,11.019778 C6.42857143,16.2099746 10.4156685,20.2040816 13.774931,20.2040816 C17.1353519,20.2040816 21.122449,16.1217488 21.122449,11.019778 L21.122449,11.019778 Z" id="Fill-1" fill="#FFFFFF"></path>
                <path d="M20.2341978,28.2232671 C19.409829,28.7248072 18.3387602,28.4746563 17.8441389,27.6387561 C17.350739,26.8040942 17.5962177,25.718043 18.4218077,25.2152644 C19.2449552,24.7137243 20.316024,24.9651135 20.8106453,25.7997754 C21.3870928,26.5527049 21.0585666,27.7217269 20.2341978,28.2232671 M20.728819,28.9761965 C21.9647616,28.2232671 22.4593828,26.5527049 21.6337928,25.2152644 C21.3870928,24.7137243 20.975519,24.3793642 20.4808978,24.1292133 C20.6457715,23.7118823 20.8924715,22.7917728 20.4808978,21.7899308 C20.3978502,21.6239891 20.316024,21.4543324 20.2341978,21.3725999 C20.1511502,21.2883907 20.1511502,21.2041815 20.069324,21.122449 L19.2449552,21.6239891 C19.409829,21.7899308 19.4916552,21.9558725 19.5747027,22.2085002 C19.9044503,23.0431621 19.5747027,23.877824 19.4916552,23.9632716 C18.9152077,23.877824 18.4218077,24.045004 17.8441389,24.2963933 C16.6069751,25.0493227 16.1123539,26.7198849 16.9367226,28.0573254 C17.763534,29.3093183 19.409829,29.8120968 20.728819,28.9761965" id="Fill-3" fill="#FFFFFF"></path>
                <path d="M20.2040816,25.7142857 C20.7102041,25.7142857 21.122449,26.1265306 21.122449,26.6326531 C21.122449,27.1401361 20.7102041,27.5510204 20.2040816,27.5510204 C19.6965986,27.5510204 19.2857143,27.1401361 19.2857143,26.6326531 C19.2857143,26.1265306 19.6965986,25.7142857 20.2040816,25.7142857" id="Fill-5" fill="#FFFFFF"></path>
                <g id="Group-9" transform="translate(0.000000, 18.367347)">
                    <mask id="mask-2" fill="white">
                        <use xlink:href="#path-1"></use>
                    </mask>
                    <g id="Clip-8"></g>
                    <path d="M1.06868367,16.4506749 L0.992357143,16.4506749 C0.387357143,16.4506749 -0.0672346939,15.8921764 0.00796938776,15.3336778 C0.0842959184,14.5366662 0.614091837,7.44739504 1.06868367,5.85337172 C1.59847959,4.10230758 5.7650102,2.03125802 8.18837755,0.99337172 C8.71705102,0.756039359 9.32317347,0.99337172 9.55103061,1.5506895 C9.77888776,2.1103688 9.55103061,2.74797813 9.02011224,2.98649125 C6.14327551,4.18141837 3.41572449,5.85337172 3.03858163,6.49098105 C2.73327551,7.60797813 2.28092857,12.5459082 2.05307143,15.4930802 C1.9767449,16.0527595 1.52327551,16.4506749 1.06868367,16.4506749" id="Fill-7" fill="#FFFFFF" mask="url(#mask-2)"></path>
                </g>
                <g id="Group-12" transform="translate(17.448980, 18.367347)">
                    <mask id="mask-4" fill="white">
                        <use xlink:href="#path-3"></use>
                    </mask>
                    <g id="Clip-11"></g>
                    <path d="M9.7304602,16.4506749 C9.16695,16.4506749 8.68342959,16.0527595 8.68342959,15.4930802 C8.44226633,12.5459082 7.95874592,7.60797813 7.63639898,6.49098105 C7.31524592,5.85337172 4.3329398,4.18141837 1.27183776,2.98649125 C0.707133673,2.74797813 0.465970408,2.1103688 0.707133673,1.5506895 C0.950684694,0.99337172 1.59537857,0.756039359 2.1576949,0.99337172 C4.73647041,2.03125802 9.2469398,4.10230758 9.7304602,5.85337172 C10.2139806,7.44739504 10.7786847,14.5366662 10.8586745,15.3336778 C10.9386643,15.8921764 10.4563378,16.4506749 9.89163367,16.5309665 L9.7304602,16.4506749 Z" id="Fill-10" fill="#FFFFFF" mask="url(#mask-4)"></path>
                </g>
                <path d="M14.6229239,29.7948422 L13.9577158,27.1016823 C13.7929508,26.3660843 13.1289723,25.5494253 12.4649938,25.2251814 L9.47709056,23.9983782 L8.98033628,22.0408163 C8.73072954,22.2029383 8.56473492,22.286419 8.31635778,22.4485409 L8.81434165,24.4085225 L6.90724785,27.1827433 C6.4916465,27.8348606 6.32688146,28.8959123 6.4916465,29.7125713 L7.155625,32.4081509 C7.40523173,33.3058709 8.14913356,33.7958662 8.89795376,33.5502636 L9.72915647,33.3058709 L9.8103094,33.6313246 C9.89269192,33.8781371 10.0586865,34.040259 10.3082933,33.9579882 C10.4730583,33.8781371 10.6402825,33.6313246 10.5554408,33.3869318 L10.2246812,31.9181555 C10.1410691,31.6725529 9.97630402,31.5092211 9.72915647,31.5902821 C9.56193226,31.6725529 9.39470804,31.9181555 9.47709056,32.1625483 L9.56193226,32.4081509 L8.73072954,32.6513338 C8.39996988,32.7348145 8.06798064,32.5702728 7.90198601,32.1625483 L7.23677792,29.4693884 C7.155625,28.979393 7.23677792,28.1627341 7.48638466,27.7550095 L9.39470804,24.9795788 L12.2166167,26.1216915 C12.6309884,26.2862332 13.1289723,26.8560797 13.2125844,27.427136 L13.8753333,30.1215057 C13.9577158,30.5304402 13.7929508,30.9393746 13.459732,31.1014965 L12.8793656,31.2636185 L12.7982126,31.0192257 C12.7146005,30.7736231 12.5486059,30.6115011 12.2989992,30.693772 C12.1354637,30.7736231 11.9670099,31.0192257 12.0493924,31.2636185 L12.3813817,32.7348145 C12.4649938,32.9792073 12.6309884,33.1413292 12.8793656,33.0614781 C13.0453602,32.9792073 13.2125844,32.7348145 13.1289723,32.4892119 L13.0453602,32.1625483 L13.6269562,32.0004263 C14.4556997,31.5902821 14.8700715,30.6115011 14.6229239,29.7948422" id="Fill-13" fill="#FFFFFF"></path>
                <g id="Group-17" transform="translate(26.632653, 0.000000)">
                    <mask id="mask-6" fill="white">
                        <use xlink:href="#path-5"></use>
                    </mask>
                    <g id="Clip-16"></g>
                    <path d="M2.32635569,7.7404898 L2.40664723,7.7404898 C2.40664723,5.01477551 4.31829446,3.27967347 7.34575802,3.27967347 C8.54186589,3.27967347 9.57739067,3.5282449 10.3732216,3.93967347 C10.1335277,4.60212245 9.09800292,6.33722449 4.79650146,7.07926531 C4.23918367,7.16253061 3.84126822,7.7404898 3.92037901,8.31844898 C3.9994898,8.81436735 4.39858601,9.22702041 4.95590379,9.22702041 L5.11294461,9.22702041 C9.17829446,8.56702041 11.0096501,6.91518367 11.8066618,5.676 C12.1242857,6.25395918 12.205758,6.99722449 12.205758,7.8237551 L12.205758,9.55763265 C12.205758,13.1919184 9.25622449,15.7547755 7.26664723,15.7547755 C5.35263848,15.7547755 2.32635569,12.9457959 2.32635569,9.55763265 L2.32635569,7.7404898 Z M7.34575802,18.1498776 C10.6908455,18.1498776 14.674723,14.3502857 14.674723,9.47559184 L14.674723,7.7404898 C14.674723,4.35355102 12.7630758,0.800081633 7.34575802,0.800081633 C2.32635569,0.800081633 0.0156122449,4.27028571 0.0156122449,7.7404898 L0.0156122449,9.47559184 C0.0156122449,14.2670204 3.9994898,18.1498776 7.34575802,18.1498776 L7.34575802,18.1498776 Z" id="Fill-15" fill="#FFFFFF" mask="url(#mask-6)"></path>
                </g>
                <path d="M30.7053316,18.3752124 L30.5481168,18.3752124 L30.3117123,18.455648 L28.4262993,19.1039344 C27.9674649,19.2383938 24.8907131,20.2168261 23.877551,22.932426 L25.9481282,24.3250413 C26.2951653,22.2325167 28.9817915,21.452172 29.0539939,21.452172 L29.8400679,21.2096648 L30.7053316,31.2244898 L33.0612245,31.2244898 L32.0399106,19.4280776 C31.8850249,18.8614273 31.3330262,18.2935764 30.7053316,18.3752124" id="Fill-18" fill="#FFFFFF"></path>
                <path d="M40.2932529,19.1813788 L38.5168946,18.5372346 L38.2080621,18.3761985 L38.0547897,18.3761985 C37.4359811,18.2950841 36.8960962,18.7793851 36.81946,19.5034509 L35.8163265,31.2244898 L38.1314259,31.2244898 L38.981287,21.1925401 L39.5978081,21.4346907 L39.6744443,21.4346907 C39.8300043,21.4346907 42.7616247,22.3209854 42.7616247,24.7353333 L42.7616247,31.1433753 L44.9989441,31.1433753 L44.9989441,24.7353333 C45.0767241,20.6295104 40.8331378,19.341222 40.2932529,19.1813788" id="Fill-20" fill="#FFFFFF"></path>
            </g>
        </g>
    </g>
</svg>