<?xml version="1.0" encoding="UTF-8" standalone="no"?>
<svg width="20px" height="20px" viewBox="0 0 20 20" version="1.1" xmlns="http://www.w3.org/2000/svg" xmlns:xlink="http://www.w3.org/1999/xlink">
    <!-- Generator: Sketch 46.2 (44496) - http://www.bohemiancoding.com/sketch -->
    <title>Page 1</title>
    <desc>Created with Sketch.</desc>
    <defs></defs>
    <g id="OP-7---Final" stroke="none" stroke-width="1" fill="none" fill-rule="evenodd">
        <g id="Desktop-08" transform="translate(-515.000000, -12.000000)" fill="#000000">
            <path d="M532.123854,30.0936766 L527.483981,25.4546343 L528.454634,24.4848112 L533.093677,29.1238535 L532.123854,30.0936766 Z M516.223073,18.4209261 C516.223073,15.554634 518.554634,13.2230731 521.420926,13.2230731 C524.287218,13.2230731 526.619609,15.554634 526.619609,18.4209261 C526.619609,21.2880486 524.287218,23.6196095 521.420926,23.6196095 C518.554634,23.6196095 516.223073,21.2880486 516.223073,18.4209261 L516.223073,18.4209261 Z M528.887235,23.1870086 C528.64727,22.9487045 528.261168,22.9487045 528.022033,23.1870086 L527.537122,23.6727505 L526.371341,22.50697 C527.290514,21.3959912 527.842683,19.9719787 527.842683,18.4209261 C527.842683,14.8804077 524.962275,12 521.420926,12 C517.881238,12 515,14.8804077 515,18.4209261 C515,21.9622749 517.881238,24.8426826 521.420926,24.8426826 C522.972809,24.8426826 524.395161,24.2896841 525.50697,23.3713414 L526.67275,24.5371219 L526.187839,25.0220334 C525.948704,25.2611679 525.948704,25.6481007 526.187839,25.8872351 L531.691253,31.3906489 C531.81082,31.5102161 531.967752,31.5699997 532.123854,31.5699997 C532.279955,31.5699997 532.436887,31.5102161 532.556454,31.3906489 L534.390649,29.5564544 C534.629783,29.3173199 534.629783,28.9303871 534.390649,28.6912527 L528.887235,23.1870086 Z" id="Page-1"></path>
        </g>
    </g>
</svg>